<svg width="19" height="19" viewBox="0 0 19 19" fill="none" xmlns="http://www.w3.org/2000/svg">
<circle cx="9.5" cy="9.5" r="8.5" stroke="#FF0000" stroke-width="2"/>
<path d="M9.51341 12.7811C8.78244 12.7811 8.16971 13.3739 8.16971 14.081C8.16971 14.7882 8.78244 15.381 9.51341 15.381C10.2175 15.381 10.8571 14.7882 10.8249 14.1122C10.8571 13.3687 10.2498 12.7811 9.51341 12.7811Z" fill="#FF0000"/>
<path d="M9.18022 3.65575C8.54062 3.83253 8.14288 4.3941 8.14288 5.07525C8.17513 5.48602 8.20201 5.90199 8.23426 6.31277C8.32563 7.87786 8.417 9.41176 8.50837 10.9769C8.54062 11.5072 8.96523 11.892 9.51346 11.892C10.0617 11.892 10.4917 11.4812 10.5186 10.9457C10.5186 10.6233 10.5186 10.3269 10.5508 9.99932C10.6099 8.99579 10.6744 7.99225 10.7335 6.98872C10.7658 6.33877 10.8249 5.68881 10.8572 5.03885C10.8572 4.80487 10.8249 4.59688 10.7335 4.3889C10.4594 3.80654 9.81983 3.51016 9.18022 3.65575Z" fill="#FF0000"/>
</svg>
