<svg xmlns="http://www.w3.org/2000/svg" width="18px" height="18px" viewBox="0 0 19.059 18.283">
	<g transform="translate(1 1)">
		<path d="M13.551,30.775A.775.775,0,1,1,12.775,30,.775.775,0,0,1,13.551,30.775Z" transform="translate(-6.572 -15.268)" fill="none" stroke="#fff" stroke-linecap="round" stroke-linejoin="round" stroke-width="2" />
		<path d="M30.051,30.775A.775.775,0,1,1,29.275,30,.775.775,0,0,1,30.051,30.775Z" transform="translate(-14.543 -15.268)" fill="none" stroke="#fff" stroke-linecap="round" stroke-linejoin="round" stroke-width="2" />
		<path d="M1.5,1.5H4.6L6.68,11.882A1.551,1.551,0,0,0,8.23,13.131h7.537a1.551,1.551,0,0,0,1.551-1.248l1.241-6.506H5.377" transform="translate(-1.5 -1.5)" fill="none" stroke="#fff" stroke-linecap="round" stroke-linejoin="round" stroke-width="2" />
	</g>
</svg>
