<svg viewBox="0 0 600 185" fill="none" xmlns="http://www.w3.org/2000/svg" class="logo">
	<path fill-rule="evenodd" clip-rule="evenodd" d="M486.5 2.89999H461.3V145.7H486.5V2.89999ZM293.4 125.6C303.2 125.6 311 121.5 315.3 115.8L335.6 127.5C326.4 140.8 311.8 148.4 293 148.4C260.2 148.4 239.4 126 239.4 96.9C239.4 67.8 260.3 45.4 291 45.4C319.9 45.4 340.5 68.2 340.5 96.9C340.5 100.6 340.1 103.9 339.5 107.2H265.8C269.4 120.1 280.1 125.6 293.4 125.6ZM315.3 87.8C312.2 73.8 301.6 68.1 291.1 68.1C277.6 68.1 268.4 75.3 265.5 87.8H315.3ZM444.6 85.8V145.7H419.4V88.9C419.4 75.6 411.4 68.8 400 68.8C387.7 68.8 378.5 76 378.5 93V145.7H353.3V48.2H378.5V59.1C384.4 50.3 394.5 45.4 407.6 45.4C428.3 45.4 444.6 59.9 444.6 85.8ZM600 48.1L564.4 145.6C554.2 173.7 537.6 186 512.8 184.6V161.2C526.7 161.4 533.7 155.5 538.4 142.5L498.3 48.1H525.9L551.3 113.7L573 48.1H600ZM231.8 48.2V69.8L192.8 122.1H231.9V145.7H160.5V126.6L200.4 71.8H160.5V48.2H231.8Z" class="fill">
	</path>
	<path d="M52.3999 181.8H57.4999C64.7999 181.8 70.7 175.9 70.7 168.6V145.7H39.2V168.6C39.2 175.9 45.0999 181.8 52.3999 181.8Z" class="fill">
	</path>
	<path d="M55 0C24.6 0 0 21.3 0 47.7V113.1L78.7 4.7C71.5 1.7 63.5 0 55 0Z" fill="#FFDD00">
	</path>
	<path d="M39.2 145.7H97.2C104.2 145.7 109.9 140 109.9 132.9V48.3L39.2 145.7Z" fill="#66FF33">
	</path>
	<path d="M110 47.7C110 28.7 97.2 12.4 78.7 4.7L0 113V132.8C0 139.9 5.7 145.6 12.7 145.6H39.2L110 48.2V47.7Z" fill="#FF0096">
	</path>
</svg>
