<svg width="25" height="25" viewBox="0 0 25 25" fill="none" xmlns="http://www.w3.org/2000/svg">
<path d="M12.5012 23.6003L17.4538 22.3496C20.2807 20.0022 22.0813 16.4616 22.0813 12.5C22.0813 6.38949 17.7985 1.27928 12.0709 0.00726318C5.36606 0.233386 0 5.74002 0 12.5C0 15.9722 1.41602 19.1136 3.70176 21.3787L12.5012 23.6003Z" fill="#CBE2FF"/>
<path d="M21.822 12.5C21.822 16.5974 19.8502 20.2339 16.8041 22.5136L21.2979 21.3788C23.5837 19.1137 25 15.9724 25 12.5C25 5.59644 19.4036 0 12.5 0C11.9617 0 11.4313 0.034082 10.911 0.100098C17.0643 0.880762 21.822 6.13477 21.822 12.5Z" fill="#BED8FB"/>
<path d="M15.6065 4.73399C15.6065 4.09556 15.089 3.57803 14.4505 3.57803H10.467C8.99775 3.57803 7.80664 4.76915 7.80664 6.23843V9.19219H17.1918V6.28033C17.1918 5.6419 16.6743 5.12437 16.0359 5.12437H15.9969C15.7813 5.12437 15.6065 4.94962 15.6065 4.73399V4.73399Z" fill="#365E7D"/>
<path d="M16.0359 5.12436H15.9969C15.7813 5.12436 15.6065 4.94955 15.6065 4.73393C15.6065 4.0955 15.089 3.57797 14.4505 3.57797H14.0138V9.19213H17.1918V6.28027C17.1918 5.64194 16.6743 5.12436 16.0359 5.12436V5.12436Z" fill="#2B4D66"/>
<path d="M20.7542 18.1814C20.4486 17.8795 20.0705 17.6461 19.6414 17.5103L16.2287 16.4298L12.5008 16.2988L8.77131 16.4298L5.35867 17.5103C4.20418 17.8758 3.41956 18.9472 3.41956 20.1582V21.0905C5.60652 23.4014 8.66619 24.878 12.0711 24.9928C15.8859 24.1455 19.0598 21.5956 20.7542 18.1814V18.1814Z" fill="#4A80AA"/>
<path d="M21.5805 21.0904V20.1581C21.5805 19.3019 21.1879 18.5158 20.55 17.9993C18.7379 21.6919 15.1583 24.36 10.9139 24.8995C11.4262 24.9644 11.948 24.999 12.4777 25C12.9866 24.9992 13.4888 24.9697 13.9828 24.9129C16.9628 24.5608 19.6217 23.1603 21.5805 21.0904Z" fill="#407093"/>
<path d="M12.783 24.8129C13.5393 23.3114 15.5087 19.0479 14.9472 16.3847L12.5008 15.4326L10.0522 16.3848C9.47327 19.1301 11.5839 23.576 12.2827 24.9438C12.4508 24.9035 12.6176 24.8598 12.783 24.8129V24.8129Z" fill="#E4F6FF"/>
<path d="M14.0721 23.6225L13.0803 19.7203H11.9198L10.9303 23.6119L12.1538 24.974C12.4644 24.9029 12.7707 24.8204 13.0723 24.7271L14.0721 23.6225Z" fill="#E28086"/>
<path d="M12.173 24.9954C12.2743 24.998 12.3758 24.9998 12.4777 25C12.5956 24.9998 12.7131 24.9978 12.8303 24.9945L13.4606 24.2982C12.9645 24.4723 12.4542 24.6159 11.9318 24.7269L12.173 24.9954Z" fill="#DD636E"/>
<path d="M14.5886 16.0246V13.8241H10.4099V16.0246C10.4099 17.1785 12.4992 18.4389 12.4992 18.4389C12.4992 18.4389 14.5886 17.1785 14.5886 16.0246Z" fill="#FFDDCE"/>
<path d="M17.1918 8.8046H16.3931C15.9488 8.8046 15.5887 8.44449 15.5887 8.00025V7.56007C15.5887 6.98141 15.0226 6.57228 14.4731 6.75387C13.1917 7.1774 11.8082 7.1775 10.5267 6.75416L10.5252 6.75367C9.97578 6.57218 9.40972 6.98131 9.40972 7.55992V8.0003C9.40972 8.44454 9.04961 8.80465 8.60537 8.80465H7.80664V10.12C7.80664 10.4561 8.0791 10.7286 8.41523 10.7286C8.52129 10.7286 8.60757 10.8116 8.61426 10.9175C8.74258 12.9521 10.4324 14.5627 12.4993 14.5627C14.5662 14.5627 16.256 12.9521 16.3843 10.9175C16.391 10.8117 16.4772 10.7286 16.5833 10.7286C16.9194 10.7286 17.1919 10.4561 17.1919 10.12V8.8046H17.1918Z" fill="#FFDDCE"/>
<path d="M16.3931 8.8046C15.9488 8.8046 15.5887 8.44449 15.5887 8.00025V7.56007C15.5887 6.9814 15.0226 6.57227 14.4732 6.75386C14.3214 6.80401 14.1681 6.84776 14.0138 6.88604V11.2304C13.9924 12.6439 13.2179 13.874 12.0741 14.5389C12.2138 14.5541 12.3555 14.5626 12.4992 14.5626C14.5661 14.5626 16.2559 12.952 16.3842 10.9174C16.3909 10.8116 16.4772 10.7285 16.5833 10.7285C16.9193 10.7285 17.1919 10.456 17.1919 10.1199V8.80455H16.3931V8.8046Z" fill="#FFCBBE"/>
<path d="M10.4099 15.4326L8.7713 16.764L10.4897 18.8887C10.6987 19.0922 11.0277 19.1047 11.2516 18.9177L12.5439 17.8382L10.4099 15.4326Z" fill="#F4FBFF"/>
<path d="M14.5894 15.4326L12.5439 17.8382L13.7584 18.8767C13.9809 19.0669 14.3115 19.0574 14.5226 18.8546L16.2287 16.764L14.5894 15.4326Z" fill="#F4FBFF"/>
<path d="M10.4099 15.4326L8.0048 16.6142C7.8217 16.7042 7.74816 16.9269 7.84167 17.1082L8.31286 18.0218C8.43498 18.2585 8.38991 18.547 8.20144 18.7352C8.10441 18.832 7.99934 18.9369 7.90827 19.0278C7.74528 19.1905 7.68674 19.4309 7.75852 19.6497C8.32741 21.3839 11.0654 24.0358 12.1016 24.9953C12.1713 24.9972 12.2411 24.9984 12.3111 24.9992C11.5596 23.5376 8.89689 17.9848 10.4099 15.4326V15.4326Z" fill="#365E7D"/>
<path d="M16.7978 18.7351C16.6093 18.5469 16.5643 18.2584 16.6864 18.0217L17.1576 17.1082C17.2511 16.9269 17.1775 16.7041 16.9944 16.6142L14.5893 15.4326C16.1019 17.9841 13.4411 23.5346 12.6888 24.998C12.7595 24.9968 12.8301 24.9951 12.9005 24.9927C13.9388 24.0311 16.6724 21.3824 17.2407 19.6498C17.3125 19.4309 17.2539 19.1905 17.091 19.0278C16.9999 18.9369 16.8948 18.8319 16.7978 18.7351V18.7351Z" fill="#365E7D"/>
<path d="M12.5439 17.8382L11.2714 18.9009L11.9197 19.7203H13.0802L13.7286 18.8526L12.5439 17.8382Z" fill="#DD636E"/>
</svg>
