<svg xmlns="http://www.w3.org/2000/svg" xmlns:xlink="http://www.w3.org/1999/xlink" xmlns:svgjs="http://svgjs.com/svgjs" version="1.1" width="40" height="40" x="0" y="0" viewBox="0 0 512 512" style="enable-background: new 0 0 512 512" xml:space="preserve">
	<g>
		<path xmlns="http://www.w3.org/2000/svg" d="M389,156.21a7.994,7.994,0,0,0,10.928-2.928l16-27.713a8,8,0,1,0-13.856-8l-16,27.713A8,8,0,0,0,389,156.21Z" fill="#000080" data-original="#000000" />
		<path xmlns="http://www.w3.org/2000/svg" d="M374.356,101.565a8,8,0,1,0,13.852,8.008l8.012-13.858a8,8,0,0,0-13.852-8.008Z" fill="#000080" data-original="#000000" />
		<path xmlns="http://www.w3.org/2000/svg" d="M416.708,172.21a7.994,7.994,0,0,0,10.928-2.928l8-13.856a8,8,0,0,0-13.856-8l-8,13.856A8,8,0,0,0,416.708,172.21Z" fill="#000080" data-original="#000000" />
		<path xmlns="http://www.w3.org/2000/svg" d="M369.282,126.354a8,8,0,1,0,2.928,10.928A8,8,0,0,0,369.282,126.354Z" fill="#000080" data-original="#000000" />
		<circle xmlns="http://www.w3.org/2000/svg" cx="444.708" cy="123.713" r="8" transform="translate(164.438 490.481) rotate(-68.16)" fill="#000080" data-original="#000000" />
		<path xmlns="http://www.w3.org/2000/svg" d="M200,80h0a8,8,0,0,0,8-8L208.01,56a8,8,0,0,0-8-8.005h0a8,8,0,0,0-8,8L192,72A8,8,0,0,0,200,80Z" fill="#000080" data-original="#000000" />
		<circle xmlns="http://www.w3.org/2000/svg" cx="264" cy="56" r="8" fill="#000080" data-original="#000000" />
		<path xmlns="http://www.w3.org/2000/svg" d="M24,496H328a40.045,40.045,0,0,0,40-40V336.573L495.349,116a8,8,0,0,0-2.928-10.928L340,17.072A8,8,0,0,0,329.072,20L304,63.426V24a8,8,0,0,0-8-8H120a8,8,0,0,0-8,8V96H24a8,8,0,0,0-8,8V488A8,8,0,0,0,24,496ZM336,264l27.923-48.363,13.856,8L336,296Zm0,64,59.636-103.291a8,8,0,0,0-2.928-10.929l-27.713-16a8,8,0,0,0-10.928,2.929L336,232V200l4.21-7.291A7.966,7.966,0,0,0,336,181.19V162.564l85.492,49.359L336,360Zm16,128a24.027,24.027,0,0,1-24,24h-.022A39.788,39.788,0,0,0,336,456V392l16-27.713Zm77.492-257.934L336,144.089V136l44.5-77.072,97,56ZM338.928,34.928l27.713,16-36.813,63.764a40.082,40.082,0,0,0-26.55-18.017ZM288,91.139,285.193,96H272V88a8,8,0,0,0-16,0v8H240V72a8,8,0,0,0-16,0V96H176V32H288ZM128,32h32V96H128ZM32,112H296a24.027,24.027,0,0,1,24,24V456a24.027,24.027,0,0,1-24,24H32Z" fill="#000080" data-original="#000000" />
		<path xmlns="http://www.w3.org/2000/svg" d="M232,400H120a8,8,0,0,0,0,16H232a8,8,0,0,0,0-16Z" fill="#000080" data-original="#000000" />
		<path xmlns="http://www.w3.org/2000/svg" d="M256,144H96a8,8,0,0,0,0,16H256a8,8,0,0,0,0-16Z" fill="#000080" data-original="#000000" />
		<path xmlns="http://www.w3.org/2000/svg" d="M176,192a88,88,0,1,0,88,88A88.1,88.1,0,0,0,176,192Zm8,63.794a154.238,154.238,0,0,0,26.422-3.486A71.611,71.611,0,0,1,215.536,272H184Zm0-16.016v-19.63a72.5,72.5,0,0,1,18.149,17.5A141.864,141.864,0,0,1,184,239.778Zm-16-19.63v19.63a141.864,141.864,0,0,1-18.149-2.131A72.5,72.5,0,0,1,168,220.148Zm0,35.646V272H136.464a71.611,71.611,0,0,1,5.114-19.692A154.238,154.238,0,0,0,168,255.794ZM120.371,272H104.455a71.5,71.5,0,0,1,10-29.338,96.738,96.738,0,0,0,11.7,5.146A87.426,87.426,0,0,0,120.371,272Zm0,16a87.426,87.426,0,0,0,5.784,24.192,96.738,96.738,0,0,0-11.7,5.146,71.5,71.5,0,0,1-10-29.338Zm16.093,0H168v16.206a154.238,154.238,0,0,0-26.422,3.486A71.611,71.611,0,0,1,136.464,288ZM168,320.222v19.63a72.5,72.5,0,0,1-18.149-17.5A141.864,141.864,0,0,1,168,320.222Zm16,19.63v-19.63a141.864,141.864,0,0,1,18.149,2.131A72.5,72.5,0,0,1,184,339.852Zm0-35.646V288h31.536a71.611,71.611,0,0,1-5.114,19.692A154.238,154.238,0,0,0,184,304.206ZM231.629,288h15.916a71.5,71.5,0,0,1-10,29.338,96.738,96.738,0,0,0-11.7-5.146A87.426,87.426,0,0,0,231.629,288Zm0-16a87.426,87.426,0,0,0-5.784-24.192,96.738,96.738,0,0,0,11.7-5.146,71.5,71.5,0,0,1,10,29.338Zm-4.112-42.228a86.048,86.048,0,0,1-8.946,3.615,88.844,88.844,0,0,0-18.7-21.3A72.148,72.148,0,0,1,227.517,229.772Zm-75.389-17.687a88.844,88.844,0,0,0-18.7,21.3,86.048,86.048,0,0,1-8.946-3.615A72.148,72.148,0,0,1,152.128,212.085ZM124.483,330.228a86.048,86.048,0,0,1,8.946-3.615,88.844,88.844,0,0,0,18.7,21.3A72.148,72.148,0,0,1,124.483,330.228Zm75.389,17.687a88.844,88.844,0,0,0,18.7-21.3,86.048,86.048,0,0,1,8.946,3.615A72.148,72.148,0,0,1,199.872,347.915Z" fill="#000080" data-original="#000000" />
		<path xmlns="http://www.w3.org/2000/svg" d="M192,432H160a8,8,0,0,0,0,16h32a8,8,0,0,0,0-16Z" fill="#000080" data-original="#000000" />
	</g>
</svg>
