<?xml version="1.0" encoding="UTF-8" standalone="no"?><svg xmlns="http://www.w3.org/2000/svg" xmlns:xlink="http://www.w3.org/1999/xlink"><symbol id="add_insurer" height="20pt" viewBox="0 0 512 512" width="20pt" style="fill: currentColor" xmlns="http://www.w3.org/2000/svg"><path d="m256 0c-141.164062 0-256 114.835938-256 256s114.835938 256 256 256 256-114.835938 256-256-114.835938-256-256-256zm112 277.332031h-90.667969v90.667969c0 11.777344-9.554687 21.332031-21.332031 21.332031s-21.332031-9.554687-21.332031-21.332031v-90.667969h-90.667969c-11.777344 0-21.332031-9.554687-21.332031-21.332031s9.554687-21.332031 21.332031-21.332031h90.667969v-90.667969c0-11.777344 9.554687-21.332031 21.332031-21.332031s21.332031 9.554687 21.332031 21.332031v90.667969h90.667969c11.777344 0 21.332031 9.554687 21.332031 21.332031s-9.554687 21.332031-21.332031 21.332031zm0 0"></path></symbol><symbol id="add_traveller" xmlns="http://www.w3.org/2000/svg" viewBox="0 0 24 24" width="1em" height="1em" fill="currentColor"><path d="M9 11H7v2h2v-2zm4 0h-2v2h2v-2zm4 0h-2v2h2v-2zm2-7h-1V2h-2v2H8V2H6v2H5c-1.11 0-1.99.9-1.99 2L3 20c0 1.1.89 2 2 2h14c1.1 0 2-.9 2-2V6c0-1.1-.9-2-2-2zm0 16H5V9h14v11z"></path><path d="M0 0h24v24H0z" fill="none"></path></symbol><symbol id="calender" xmlns="http://www.w3.org/2000/svg" viewBox="0 0 24 24" width="1em" height="1em" fill="currentColor"><path d="M9 11H7v2h2v-2zm4 0h-2v2h2v-2zm4 0h-2v2h2v-2zm2-7h-1V2h-2v2H8V2H6v2H5c-1.11 0-1.99.9-1.99 2L3 20c0 1.1.89 2 2 2h14c1.1 0 2-.9 2-2V6c0-1.1-.9-2-2-2zm0 16H5V9h14v11z"></path><path d="M0 0h24v24H0z" fill="none"></path></symbol><symbol id="chat" version="1.1" height="22px" width="22px" xmlns="http://www.w3.org/2000/svg" xmlns:xlink="http://www.w3.org/1999/xlink" x="0px" y="0px" viewBox="0 0 512.001 512.001" fill="currentColor" style="enable-background:new 0 0 512.001 512.001;" xml:space="preserve"><g><g><g><path d="M468.53,306.575c-4.14-10.239-15.798-15.188-26.038-11.046c-10.241,4.14-15.187,15.797-11.047,26.038L455,379.833
				l-69.958-30.839c-5.064-2.232-10.827-2.267-15.917-0.095c-23.908,10.201-49.52,15.373-76.124,15.373
				c-107.073,0-179-83.835-179-162.136c0-89.402,80.299-162.136,179-162.136s179,72.734,179,162.136
				c0,6.975-0.65,15.327-1.781,22.913c-1.63,10.925,5.905,21.102,16.83,22.732c10.926,1.634,21.103-5.905,22.732-16.83
				c1.431-9.59,2.219-19.824,2.219-28.815c0-54.33-23.006-105.308-64.783-143.543C405.936,20.809,351.167,0,293.001,0
				S180.067,20.809,138.784,58.592c-37.332,34.168-59.66,78.516-63.991,126.335C27.836,216.023,0.001,265.852,0.001,319.525
				c0,33.528,10.563,65.34,30.67,92.717L1.459,484.504c-3.051,7.546-1.224,16.189,4.621,21.855
				c3.809,3.694,8.828,5.642,13.925,5.642c2.723-0.001,5.469-0.556,8.063-1.7l84.229-37.13c21.188,7.887,43.585,11.88,66.703,11.88
				c0.5,0,0.991-0.039,1.482-0.075c33.437-0.253,65.944-9.048,94.098-25.507c25.218-14.744,45.962-34.998,60.505-58.917
				c14.199-2.55,28.077-6.402,41.547-11.551l107.301,47.3c2.595,1.143,5.34,1.7,8.063,1.7c5.097-0.001,10.117-1.949,13.926-5.642
				c5.845-5.666,7.672-14.308,4.621-21.855L468.53,306.575z M179.002,445c-0.273,0-0.539,0.03-0.81,0.041
				c-20.422-0.104-40.078-4.118-58.435-11.95c-5.089-2.173-10.852-2.138-15.916,0.095l-46.837,20.646l15.109-37.375
				c2.793-6.909,1.512-14.799-3.322-20.47c-18.835-22.097-28.79-48.536-28.79-76.462c0-31.961,13.445-62.244,36.969-85.206
				c7.324,39.925,27.989,78.117,59.162,108.119c38.791,37.333,90.101,58.961,145.506,61.565
				C255.626,429.608,218.402,445,179.002,445z"></path><circle cx="292.001" cy="203" r="20"></circle><circle cx="372.001" cy="203" r="20"></circle><circle cx="212.001" cy="203" r="20"></circle></g></g></g></symbol><symbol id="chevron-left" class="bi bi-chevron-left" width="1em" height="1em" viewBox="0 0 16 16" fill="#000000" xmlns="http://www.w3.org/2000/svg"><path fill-rule="evenodd" d="M11.354 1.646a.5.5 0 010 .708L5.707 8l5.647 5.646a.5.5 0 01-.708.708l-6-6a.5.5 0 010-.708l6-6a.5.5 0 01.708 0z" clip-rule="evenodd"></path></symbol><symbol id="correct" width="19" height="19" viewBox="0 0 19 19" fill="none" xmlns="http://www.w3.org/2000/svg"><circle cx="9.5" cy="9.5" r="8.5" stroke="#5FBD6B" stroke-width="2"></circle><path d="M15.1565 5.64045C14.8716 5.35795 14.42 5.35795 14.1351 5.64045L7.30365 12.6544L4.88288 10.1689C4.60084 9.8691 4.13543 9.86083 3.84343 10.1504C3.5514 10.44 3.54334 10.9178 3.82539 11.2176C3.83129 11.2239 3.83732 11.2301 3.84343 11.2362L6.78393 14.2552C7.07097 14.5499 7.53633 14.5499 7.82337 14.2552L15.1746 6.70762C15.4566 6.40782 15.4485 5.93003 15.1565 5.64045Z" fill="#5FBD6B"></path></symbol><symbol id="coupon" xmlns="http://www.w3.org/2000/svg" width="24" height="24" viewBox="0 0 24 24"><path d="M21,4H3C2.447,4,2,4.447,2,5v14c0,0.553,0.447,1,1,1h18c0.553,0,1-0.447,1-1V5C22,4.447,21.553,4,21,4z M20,15 c-1.657,0-3,1.343-3,3H7c0-1.657-1.343-3-3-3V9c1.657,0,3-1.343,3-3h10c0,1.657,1.343,3,3,3V15z"></path><path d="M12,8c-2.206,0-4,1.794-4,4s1.794,4,4,4s4-1.794,4-4S14.206,8,12,8z M12,14c-1.103,0-2-0.897-2-2s0.897-2,2-2s2,0.897,2,2 S13.103,14,12,14z"></path></symbol><symbol id="decrement" height="10px" fill="currentColor" viewBox="0 -192 469.33333 469" width="10px" xmlns="http://www.w3.org/2000/svg"><path d="m437.332031.167969h-405.332031c-17.664062 0-32 14.335937-32 32v21.332031c0 17.664062 14.335938 32 32 32h405.332031c17.664063 0 32-14.335938 32-32v-21.332031c0-17.664063-14.335937-32-32-32zm0 0"></path></symbol><symbol id="double_arrow_down" xmlns="http://www.w3.org/2000/svg" xmlns:xlink="http://www.w3.org/1999/xlink" version="1.1" x="0px" y="0px" width="10px" height="10px" viewBox="0 0 970.504 970.503" style="enable-background: new 0 0 970.504 970.503" xml:space="preserve" class="hovered-paths"><g><g><path d="M120.027,962.802c26.6,0,53.5-8.801,75.7-27l288.1-234.7l290.899,237c22.301,18.1,49.101,27,75.7,27   c34.8,0,69.4-15.101,93.101-44.2c41.899-51.4,34.1-127-17.2-168.8l-366.7-298.8c-44.1-36-107.5-36-151.6,0l-363.8,296.5   c-51.4,41.8-59.1,117.399-17.3,168.8C50.727,947.702,85.227,962.802,120.027,962.802z" data-original="#000000" class="hovered-path active-path" fill="currentColor"></path><path d="M120.027,541.902c26.6,0,53.5-8.8,75.7-27l288.1-234.7l290.899,237c22.301,18.101,49.101,27,75.7,27   c34.8,0,69.4-15.1,93.101-44.2c41.899-51.399,34.1-127-17.2-168.8l-366.7-298.8c-44.1-36-107.5-36-151.6,0l-363.8,296.4   c-51.4,41.9-59.1,117.5-17.3,168.9C50.727,526.802,85.227,541.902,120.027,541.902z" data-original="#000000" class="hovered-path active-path" fill="currentColor"></path></g></g></symbol><symbol id="double_arrow_up" version="1.1" xmlns="http://www.w3.org/2000/svg" xmlns:xlink="http://www.w3.org/1999/xlink" x="0px" y="0px" width="10px" height="10px" viewBox="0 0 970.586 970.586" fill="currentColor" style="enable-background: new 0 0 970.586 970.586;" xml:space="preserve"><g><path d="M44.177,220.307l363.9,296.4c22.101,18,48.9,27,75.8,27c26.901,0,53.701-9,75.801-27l366.699-298.7
		c51.4-41.9,59.101-117.4,17.2-168.8c-41.8-51.4-117.399-59.1-168.8-17.3l-290.901,237l-288.1-234.7c-51.4-41.8-127-34.1-168.8,17.3
		C-14.923,102.907-7.123,178.407,44.177,220.307z"></path><path d="M44.177,642.207l363.9,296.399c22.101,18,48.9,27,75.8,27c26.901,0,53.701-9,75.801-27l366.699-298.7
		c51.4-41.899,59.101-117.399,17.2-168.8c-41.899-51.399-117.399-59.1-168.8-17.2l-290.901,236.9l-288.1-234.6
		c-51.4-41.9-127-34.101-168.8,17.199C-14.923,524.807-7.123,600.406,44.177,642.207z"></path></g></symbol><symbol id="faq_icon" enable-background="new 0 0 512 512" viewBox="0 0 512 512" width="30" height="30" xmlns="http://www.w3.org/2000/svg"><g><g><circle cx="91" cy="331" fill="#ffe1ba" r="60"></circle><path d="m151 331c0-33.091-26.909-60-60-60v120c33.091 0 60-26.909 60-60z" fill="#ffbfab"></path><path d="m91 391c-49.629 0-91 41.371-91 91v30h91 90v-30c0-49.629-40.371-91-90-91z" fill="#47568c"></path><path d="m181 512v-30c0-49.629-40.371-91-90-91v121z" fill="#29376d"></path><circle cx="421" cy="331" fill="#ffe1ba" r="60"></circle><path d="m481 331c0-33.091-26.909-60-60-60v120c33.091 0 60-26.909 60-60z" fill="#ffbfab"></path><path d="m512 482c0-49.629-41.371-91-91-91s-90 41.371-90 91v30h90 91z" fill="#47568c"></path><path d="m512 512v-30c0-49.629-41.371-91-91-91v121z" fill="#29376d"></path></g><path d="m256 0c-74.443 0-135 60.557-135 135v30c0 74.443 60.557 135 135 135s135-60.557 135-135v-30c0-74.443-60.557-135-135-135z" fill="#66b3ff"></path><path d="m256 300c74.443 0 135-60.557 135-135v-30c0-74.443-60.557-135-135-135z" fill="#4d88ff"></path><path d="m241 210h30v30h-30z" fill="#edf5ff"></path><path d="m301 105c0 14.24-6.86 27.79-18.33 36.24-7.3 5.39-11.67 14-11.67 23.06v15.7h-30v-15.7c0-14.52 5.46-28.47 15-39.14 2.65-2.97 5.62-5.68 8.88-8.08 3.88-2.85 6.12-7.26 6.12-12.08 0-8.28-6.72-15-15-15s-15 6.72-15 15v15h-30v-15c0-24.81 20.19-45 45-45s45 20.19 45 45z" fill="#edf5ff"></path><g fill="#d5e8fe"><path d="m256 210h15v30h-15z"></path><path d="m301 105c0 14.24-6.86 27.79-18.33 36.24-7.3 5.39-11.67 14-11.67 23.06v15.7h-15v-54.84c2.65-2.97 5.62-5.68 8.88-8.08 3.88-2.85 6.12-7.26 6.12-12.08 0-8.28-6.72-15-15-15v-30c24.81 0 45 20.19 45 45z"></path></g></g></symbol><symbol id="facebook" enable-background="new 0 0 24 24" height="14" viewBox="0 0 24 24" width="14" xmlns="http://www.w3.org/2000/svg"><path d="m15.997 3.985h2.191v-3.816c-.378-.052-1.678-.169-3.192-.169-3.159 0-5.323 1.987-5.323 5.639v3.361h-3.486v4.266h3.486v10.734h4.274v-10.733h3.345l.531-4.266h-3.877v-2.939c.001-1.233.333-2.077 2.051-2.077z"></path></symbol><symbol id="download" class="bi bi-download" width="1em" height="1em" viewBox="0 0 16 16" fill="currentColor" xmlns="http://www.w3.org/2000/svg"><path fill-rule="evenodd" d="M.5 8a.5.5 0 01.5.5V12a1 1 0 001 1h12a1 1 0 001-1V8.5a.5.5 0 011 0V12a2 2 0 01-2 2H2a2 2 0 01-2-2V8.5A.5.5 0 01.5 8z" clip-rule="evenodd"></path><path fill-rule="evenodd" d="M5 7.5a.5.5 0 01.707 0L8 9.793 10.293 7.5a.5.5 0 11.707.707l-2.646 2.647a.5.5 0 01-.708 0L5 8.207A.5.5 0 015 7.5z" clip-rule="evenodd"></path><path fill-rule="evenodd" d="M8 1a.5.5 0 01.5.5v8a.5.5 0 01-1 0v-8A.5.5 0 018 1z" clip-rule="evenodd"></path></symbol><symbol id="hand_pointer" xmlns="http://www.w3.org/2000/svg" xmlns:xlink="http://www.w3.org/1999/xlink" version="1.1" x="0px" y="0px" viewBox="0 0 286.614 286.614" style="enable-background: new 0 0 286.614 286.614" xml:space="preserve" width="16px" height="16px"><g><g><path d="M270.126,105.055H146.394l23.487-18.548c7.147-5.643,8.364-16.011,2.721-23.156c-5.643-7.146-16.012-8.365-23.156-2.721   c0,0-40.819,33.689-60.28,47.603c-13.14,9.395-25.402,20.959-25.402,38.096v39.537c0,24.077,19.588,43.666,43.665,43.666   c17.677,0,61.369,0,77.789,0c9.106,0,16.487-7.382,16.487-16.487c0-5.927-3.138-11.108-7.833-14.014h5.359   c9.105,0,16.487-7.382,16.487-16.487c0-5.927-3.138-11.108-7.833-14.014h3.71c9.105,0,16.487-7.382,16.487-16.487   c0-5.927-3.138-11.108-7.832-14.014h49.874c9.105,0,16.487-7.382,16.487-16.487S279.232,105.055,270.126,105.055z" data-original="#000000" class="active-path" fill="currentColor"></path><path d="M37.885,110.781H9.282c-5.126,0-9.282,4.156-9.282,9.282V220.25c0,5.126,4.156,9.282,9.282,9.282h28.603   c5.126,0,9.282-4.156,9.282-9.282V120.063C47.167,114.936,43.011,110.781,37.885,110.781z" data-original="#000000" class="active-path" fill="currentColor"></path></g></g></symbol><symbol id="error" width="19" height="19" viewBox="0 0 19 19" fill="none" xmlns="http://www.w3.org/2000/svg"><circle cx="9.5" cy="9.5" r="8.5" stroke="#FF0000" stroke-width="2"></circle><path d="M9.51341 12.7811C8.78244 12.7811 8.16971 13.3739 8.16971 14.081C8.16971 14.7882 8.78244 15.381 9.51341 15.381C10.2175 15.381 10.8571 14.7882 10.8249 14.1122C10.8571 13.3687 10.2498 12.7811 9.51341 12.7811Z" fill="#FF0000"></path><path d="M9.18022 3.65575C8.54062 3.83253 8.14288 4.3941 8.14288 5.07525C8.17513 5.48602 8.20201 5.90199 8.23426 6.31277C8.32563 7.87786 8.417 9.41176 8.50837 10.9769C8.54062 11.5072 8.96523 11.892 9.51346 11.892C10.0617 11.892 10.4917 11.4812 10.5186 10.9457C10.5186 10.6233 10.5186 10.3269 10.5508 9.99932C10.6099 8.99579 10.6744 7.99225 10.7335 6.98872C10.7658 6.33877 10.8249 5.68881 10.8572 5.03885C10.8572 4.80487 10.8249 4.59688 10.7335 4.3889C10.4594 3.80654 9.81983 3.51016 9.18022 3.65575Z" fill="#FF0000"></path></symbol><symbol id="important_points" version="1.1" xmlns="http://www.w3.org/2000/svg" xmlns:xlink="http://www.w3.org/1999/xlink" x="0px" y="0px" viewBox="0 0 512 512" style="enable-background:new 0 0 512 512;" xml:space="preserve"><path style="fill:#FC495C;" d="M427.155,206l37.772-94.429c1.849-4.622,1.284-9.859-1.506-13.98C460.63,93.469,455.977,91,451,91
             H261c-8.284,0-15,6.716-15,15v135h-35c-8.284,0-15,6.716-15,15v50c0,8.284,6.716,15,15,15h240c4.978,0,9.63-2.469,12.421-6.591
             c2.791-4.121,3.355-9.358,1.506-13.98L427.155,206z"></path><path style="fill:#D12657;" d="M210.997,321c-1.932,0-3.881-0.373-5.737-1.142c-5.605-2.322-9.26-7.791-9.26-13.858v-50
             c0-8.284,6.716-15,15-15h50c6.067,0,11.537,3.654,13.858,9.26c2.321,5.605,1.038,12.057-3.252,16.347l-50,50
             C218.737,319.477,214.9,321,210.997,321z"></path><path style="fill:#FD6B82;" d="M261,41H61c-8.284,0-15,6.716-15,15v200c0,8.284,6.716,15,15,15h200c8.284,0,15-6.716,15-15V56
             C276,47.716,269.284,41,261,41z"></path><path style="fill:#A4B0BE;" d="M61,512c-8.284,0-15-6.716-15-15V15c0-8.284,6.716-15,15-15s15,6.716,15,15v482
             C76,505.284,69.284,512,61,512z"></path></symbol><symbol id="increase" xmlns="http://www.w3.org/2000/svg" height="10px" viewBox="0 0 469.33333 469.33333" width="10px" class="hovered-paths"><g><path d="m437.332031 192h-160v-160c0-17.664062-14.335937-32-32-32h-21.332031c-17.664062 0-32 14.335938-32 32v160h-160c-17.664062 0-32 14.335938-32 32v21.332031c0 17.664063 14.335938 32 32 32h160v160c0 17.664063 14.335938 32 32 32h21.332031c17.664063 0 32-14.335937 32-32v-160h160c17.664063 0 32-14.335937 32-32v-21.332031c0-17.664062-14.335937-32-32-32zm0 0" data-original="#000000" class="hovered-path active-path" fill="currentColor"></path></g></symbol><symbol id="instagram" version="1.1" xmlns="http://www.w3.org/2000/svg" xmlns:xlink="http://www.w3.org/1999/xlink" x="0px" y="0px" viewBox="0 0 512 512" style="enable-background:new 0 0 512 512;" xml:space="preserve" height="14" width="14"><g><g><path d="M352,0H160C71.648,0,0,71.648,0,160v192c0,88.352,71.648,160,160,160h192c88.352,0,160-71.648,160-160V160
                   C512,71.648,440.352,0,352,0z M464,352c0,61.76-50.24,112-112,112H160c-61.76,0-112-50.24-112-112V160C48,98.24,98.24,48,160,48
                   h192c61.76,0,112,50.24,112,112V352z"></path></g></g><g><g><path d="M256,128c-70.688,0-128,57.312-128,128s57.312,128,128,128s128-57.312,128-128S326.688,128,256,128z M256,336
                   c-44.096,0-80-35.904-80-80c0-44.128,35.904-80,80-80s80,35.872,80,80C336,300.096,300.096,336,256,336z"></path></g></g><g><g><circle cx="393.6" cy="118.4" r="17.056"></circle></g></g></symbol><symbol id="linkedin" enable-background="new 0 0 24 24" height="14" viewBox="0 0 24 24" width="14" xmlns="http://www.w3.org/2000/svg"><path d="m23.994 24v-.001h.006v-8.802c0-4.306-.927-7.623-5.961-7.623-2.42 0-4.044 1.328-4.707 2.587h-.07v-2.185h-4.773v16.023h4.97v-7.934c0-2.089.396-4.109 2.983-4.109 2.549 0 2.587 2.384 2.587 4.243v7.801z"></path><path d="m.396 7.977h4.976v16.023h-4.976z"></path><path d="m2.882 0c-1.591 0-2.882 1.291-2.882 2.882s1.291 2.909 2.882 2.909 2.882-1.318 2.882-2.909c-.001-1.591-1.292-2.882-2.882-2.882z"></path></symbol><symbol id="phone" version="1.1" xmlns="http://www.w3.org/2000/svg" xmlns:xlink="http://www.w3.org/1999/xlink" height="10px" width="10px" x="0px" y="0px" viewBox="0 0 384 384" style="enable-background:new 0 0 384 384;" xml:space="preserve"><g><g><path d="M353.188,252.052c-23.51,0-46.594-3.677-68.469-10.906c-10.719-3.656-23.896-0.302-30.438,6.417l-43.177,32.594
             c-50.073-26.729-80.917-57.563-107.281-107.26l31.635-42.052c8.219-8.208,11.167-20.198,7.635-31.448
             c-7.26-21.99-10.948-45.063-10.948-68.583C132.146,13.823,118.323,0,101.333,0H30.813C13.823,0,0,13.823,0,30.813
             C0,225.563,158.438,384,353.188,384c16.99,0,30.813-13.823,30.813-30.813v-70.323C384,265.875,370.177,252.052,353.188,252.052z"></path></g></g></symbol><symbol id="loader" xmlns="http://www.w3.org/2000/svg" style="fill: #fff; height: 1em; width: 1em" viewBox="0 0 24 24"><g data-name="Layer 2"><g data-name="loader"><rect width="24" height="24" transform="rotate(180 12 12)" opacity="0"></rect><path d="M12 2a1 1 0 0 0-1 1v2a1 1 0 0 0 2 0V3a1 1 0 0 0-1-1z"></path><path d="M21 11h-2a1 1 0 0 0 0 2h2a1 1 0 0 0 0-2z"></path><path d="M6 12a1 1 0 0 0-1-1H3a1 1 0 0 0 0 2h2a1 1 0 0 0 1-1z"></path><path d="M6.22 5a1 1 0 0 0-1.39 1.47l1.44 1.39a1 1 0 0 0 .73.28 1 1 0 0 0 .72-.31 1 1 0 0 0 0-1.41z"></path><path d="M17 8.14a1 1 0 0 0 .69-.28l1.44-1.39A1 1 0 0 0 17.78 5l-1.44 1.42a1 1 0 0 0 0 1.41 1 1 0 0 0 .66.31z"></path><path d="M12 18a1 1 0 0 0-1 1v2a1 1 0 0 0 2 0v-2a1 1 0 0 0-1-1z"></path><path d="M17.73 16.14a1 1 0 0 0-1.39 1.44L17.78 19a1 1 0 0 0 .69.28 1 1 0 0 0 .72-.3 1 1 0 0 0 0-1.42z"></path><path d="M6.27 16.14l-1.44 1.39a1 1 0 0 0 0 1.42 1 1 0 0 0 .72.3 1 1 0 0 0 .67-.25l1.44-1.39a1 1 0 0 0-1.39-1.44z"></path></g></g></symbol><symbol id="question_circle_fill" class="bi bi-question-circle-fill" width="1em" height="1em" viewBox="0 0 16 16" fill="currentColor" xmlns="http://www.w3.org/2000/svg"><path fill-rule="evenodd" d="M16 8A8 8 0 110 8a8 8 0 0116 0zM6.57 6.033H5.25C5.22 4.147 6.68 3.5 8.006 3.5c1.397 0 2.673.73 2.673 2.24 0 1.08-.635 1.594-1.244 2.057-.737.559-1.01.768-1.01 1.486v.355H7.117l-.007-.463c-.038-.927.495-1.498 1.168-1.987.59-.444.965-.736.965-1.371 0-.825-.628-1.168-1.314-1.168-.901 0-1.358.603-1.358 1.384zm1.251 6.443c-.584 0-1.009-.394-1.009-.927 0-.552.425-.94 1.01-.94.609 0 1.028.388 1.028.94 0 .533-.42.927-1.029.927z" clip-rule="evenodd"></path></symbol><symbol id="quotes" enable-background="new 0 0 409.294 409.294" height="12px" viewBox="0 0 409.294 409.294" width="12px" xmlns="http://www.w3.org/2000/svg"><path d="m0 204.647v175.412h175.412v-175.412h-116.941c0-64.48 52.461-116.941 116.941-116.941v-58.471c-96.728 0-175.412 78.684-175.412 175.412z"></path><path d="m409.294 87.706v-58.471c-96.728 0-175.412 78.684-175.412 175.412v175.412h175.412v-175.412h-116.941c0-64.48 52.461-116.941 116.941-116.941z"></path></symbol><symbol id="question_mark" class="bi bi-question-circle-fill" width="1em" height="1em" viewBox="0 0 16 16" fill="currentColor" xmlns="http://www.w3.org/2000/svg"><path fill-rule="evenodd" d="M16 8A8 8 0 110 8a8 8 0 0116 0zM6.57 6.033H5.25C5.22 4.147 6.68 3.5 8.006 3.5c1.397 0 2.673.73 2.673 2.24 0 1.08-.635 1.594-1.244 2.057-.737.559-1.01.768-1.01 1.486v.355H7.117l-.007-.463c-.038-.927.495-1.498 1.168-1.987.59-.444.965-.736.965-1.371 0-.825-.628-1.168-1.314-1.168-.901 0-1.358.603-1.358 1.384zm1.251 6.443c-.584 0-1.009-.394-1.009-.927 0-.552.425-.94 1.01-.94.609 0 1.028.388 1.028.94 0 .533-.42.927-1.029.927z" clip-rule="evenodd"></path></symbol><symbol id="minimize" version="1.1" xmlns="http://www.w3.org/2000/svg" xmlns:xlink="http://www.w3.org/1999/xlink" x="0px" y="0px" width="1em" height="1em" viewBox="0 0 124 124" fill="currentColor" style="enable-background:new 0 0 124 124; width: 12px;" xml:space="preserve"><g><path d="M112,50H12C5.4,50,0,55.4,0,62c0,6.6,5.4,12,12,12h100c6.6,0,12-5.4,12-12C124,55.4,118.6,50,112,50z"></path></g></symbol><symbol id="remove_insurer" xmlns="http://www.w3.org/2000/svg" width="1em" height="1em" viewBox="0 0 24 24" fill="none" stroke="currentColor" stroke-width="2" stroke-linecap="round" stroke-linejoin="round" class="feather feather-x"><line x1="18" y1="6" x2="6" y2="18"></line><line x1="6" y1="6" x2="18" y2="18"></line></symbol><symbol id="resent" xmlns="http://www.w3.org/2000/svg" viewBox="0 0 24 24" fill="currentColor" width="18px" height="18px"><path d="M12 6v3l4-4-4-4v3c-4.42 0-8 3.58-8 8 0 1.57.46 3.03 1.24 4.26L6.7 14.8c-.45-.83-.7-1.79-.7-2.8 0-3.31 2.69-6 6-6zm6.76 1.74L17.3 9.2c.44.84.7 1.79.7 2.8 0 3.31-2.69 6-6 6v-3l-4 4 4 4v-3c4.42 0 8-3.58 8-8 0-1.57-.46-3.03-1.24-4.26z"></path><path d="M0 0h24v24H0z" fill="none"></path></symbol><symbol id="star" height="15px" viewBox="0 -10 511.98685 511" width="15px" xmlns="http://www.w3.org/2000/svg"><path d="m510.652344 185.902344c-3.351563-10.367188-12.546875-17.730469-23.425782-18.710938l-147.773437-13.417968-58.433594-136.769532c-4.308593-10.023437-14.121093-16.511718-25.023437-16.511718s-20.714844 6.488281-25.023438 16.535156l-58.433594 136.746094-147.796874 13.417968c-10.859376 1.003906-20.03125 8.34375-23.402344 18.710938-3.371094 10.367187-.257813 21.738281 7.957031 28.90625l111.699219 97.960937-32.9375 145.089844c-2.410156 10.667969 1.730468 21.695313 10.582031 28.09375 4.757813 3.4375 10.324219 5.1875 15.9375 5.1875 4.839844 0 9.640625-1.304687 13.949219-3.882813l127.46875-76.183593 127.421875 76.183593c9.324219 5.609376 21.078125 5.097657 29.910156-1.304687 8.855469-6.417969 12.992187-17.449219 10.582031-28.09375l-32.9375-145.089844 111.699219-97.941406c8.214844-7.1875 11.351563-18.539063 7.980469-28.925781zm0 0" fill="currentColor"></path></symbol><symbol id="rupee" xmlns="http://www.w3.org/2000/svg" width="24" height="24" viewBox="0 0 24 24"><path d="M17,6V4H9.5H7H6v2h1h2.5c1.302,0,2.401,0.838,2.815,2H6v2h6.315c-0.414,1.162-1.514,2-2.815,2H6v2.414L11.586,20h2.828 l-6-6H9.5c2.414,0,4.435-1.721,4.898-4H17V8h-2.602c-0.151-0.744-0.481-1.416-0.924-2H17z"></path></symbol><symbol id="twitter" version="1.1" xmlns="http://www.w3.org/2000/svg" height="14" width="14" xmlns:xlink="http://www.w3.org/1999/xlink" x="0px" y="0px" viewBox="0 0 512 512" style="enable-background:new 0 0 512 512;" xml:space="preserve"><g><g><path d="M512,97.248c-19.04,8.352-39.328,13.888-60.48,16.576c21.76-12.992,38.368-33.408,46.176-58.016
                      c-20.288,12.096-42.688,20.64-66.56,25.408C411.872,60.704,384.416,48,354.464,48c-58.112,0-104.896,47.168-104.896,104.992
                      c0,8.32,0.704,16.32,2.432,23.936c-87.264-4.256-164.48-46.08-216.352-109.792c-9.056,15.712-14.368,33.696-14.368,53.056
                      c0,36.352,18.72,68.576,46.624,87.232c-16.864-0.32-33.408-5.216-47.424-12.928c0,0.32,0,0.736,0,1.152
                      c0,51.008,36.384,93.376,84.096,103.136c-8.544,2.336-17.856,3.456-27.52,3.456c-6.72,0-13.504-0.384-19.872-1.792
                      c13.6,41.568,52.192,72.128,98.08,73.12c-35.712,27.936-81.056,44.768-130.144,44.768c-8.608,0-16.864-0.384-25.12-1.44
                      C46.496,446.88,101.6,464,161.024,464c193.152,0,298.752-160,298.752-298.688c0-4.64-0.16-9.12-0.384-13.568
                      C480.224,136.96,497.728,118.496,512,97.248z"></path></g></g></symbol><symbol id="unknown" viewBox="0 0 600 185" fill="none" xmlns="http://www.w3.org/2000/svg" class="logo"><path fill-rule="evenodd" clip-rule="evenodd" d="M486.5 2.89999H461.3V145.7H486.5V2.89999ZM293.4 125.6C303.2 125.6 311 121.5 315.3 115.8L335.6 127.5C326.4 140.8 311.8 148.4 293 148.4C260.2 148.4 239.4 126 239.4 96.9C239.4 67.8 260.3 45.4 291 45.4C319.9 45.4 340.5 68.2 340.5 96.9C340.5 100.6 340.1 103.9 339.5 107.2H265.8C269.4 120.1 280.1 125.6 293.4 125.6ZM315.3 87.8C312.2 73.8 301.6 68.1 291.1 68.1C277.6 68.1 268.4 75.3 265.5 87.8H315.3ZM444.6 85.8V145.7H419.4V88.9C419.4 75.6 411.4 68.8 400 68.8C387.7 68.8 378.5 76 378.5 93V145.7H353.3V48.2H378.5V59.1C384.4 50.3 394.5 45.4 407.6 45.4C428.3 45.4 444.6 59.9 444.6 85.8ZM600 48.1L564.4 145.6C554.2 173.7 537.6 186 512.8 184.6V161.2C526.7 161.4 533.7 155.5 538.4 142.5L498.3 48.1H525.9L551.3 113.7L573 48.1H600ZM231.8 48.2V69.8L192.8 122.1H231.9V145.7H160.5V126.6L200.4 71.8H160.5V48.2H231.8Z" class="fill"></path><path d="M52.3999 181.8H57.4999C64.7999 181.8 70.7 175.9 70.7 168.6V145.7H39.2V168.6C39.2 175.9 45.0999 181.8 52.3999 181.8Z" class="fill"></path><path d="M55 0C24.6 0 0 21.3 0 47.7V113.1L78.7 4.7C71.5 1.7 63.5 0 55 0Z" fill="#FFDD00"></path><path d="M39.2 145.7H97.2C104.2 145.7 109.9 140 109.9 132.9V48.3L39.2 145.7Z" fill="#66FF33"></path><path d="M110 47.7C110 28.7 97.2 12.4 78.7 4.7L0 113V132.8C0 139.9 5.7 145.6 12.7 145.6H39.2L110 48.2V47.7Z" fill="#FF0096"></path></symbol><symbol id="user" enable-background="new 0 0 512 512" height="1em" viewBox="0 0 512 512" width="1em" xmlns="http://www.w3.org/2000/svg" xmlns:xlink="http://www.w3.org/1999/xlink"><linearGradient gradientUnits="userSpaceOnUse" x1="256" x2="256" y1="512" y2="0"><stop offset="0" stop-color="#5558ff"></stop><stop offset="1" stop-color="#00c0ff"></stop></linearGradient><linearGradient gradientUnits="userSpaceOnUse" x1="256" x2="256" y1="452" y2="91"><stop offset="0" stop-color="#addcff"></stop><stop offset="0.5028" stop-color="#eaf6ff"></stop><stop offset="1" stop-color="#eaf6ff"></stop></linearGradient><g><g><g><circle cx="256" cy="256" fill="url(#SVGID_1_)" r="256"></circle></g></g><g><g><path d="m331 166c0-41.355-33.645-75-75-75s-75 33.645-75 75 33.645 75 75 75 75-33.645 75-75zm-75 75c-74.439 0-135 60.561-135 135v14.058c0 4.264 1.814 8.326 4.99 11.171 36.538 32.74 82.71 50.771 130.01 50.771 47.301 0 93.473-18.031 130.01-50.771 3.176-2.845 4.99-6.908 4.99-11.171v-14.058c0-74.439-60.561-135-135-135z" fill="url(#SVGID_2_)"></path></g></g></g></symbol><symbol id="user_profile" width="25" height="25" viewBox="0 0 25 25" fill="none" xmlns="http://www.w3.org/2000/svg"><path d="M12.5012 23.6003L17.4538 22.3496C20.2807 20.0022 22.0813 16.4616 22.0813 12.5C22.0813 6.38949 17.7985 1.27928 12.0709 0.00726318C5.36606 0.233386 0 5.74002 0 12.5C0 15.9722 1.41602 19.1136 3.70176 21.3787L12.5012 23.6003Z" fill="#CBE2FF"></path><path d="M21.822 12.5C21.822 16.5974 19.8502 20.2339 16.8041 22.5136L21.2979 21.3788C23.5837 19.1137 25 15.9724 25 12.5C25 5.59644 19.4036 0 12.5 0C11.9617 0 11.4313 0.034082 10.911 0.100098C17.0643 0.880762 21.822 6.13477 21.822 12.5Z" fill="#BED8FB"></path><path d="M15.6065 4.73399C15.6065 4.09556 15.089 3.57803 14.4505 3.57803H10.467C8.99775 3.57803 7.80664 4.76915 7.80664 6.23843V9.19219H17.1918V6.28033C17.1918 5.6419 16.6743 5.12437 16.0359 5.12437H15.9969C15.7813 5.12437 15.6065 4.94962 15.6065 4.73399V4.73399Z" fill="#365E7D"></path><path d="M16.0359 5.12436H15.9969C15.7813 5.12436 15.6065 4.94955 15.6065 4.73393C15.6065 4.0955 15.089 3.57797 14.4505 3.57797H14.0138V9.19213H17.1918V6.28027C17.1918 5.64194 16.6743 5.12436 16.0359 5.12436V5.12436Z" fill="#2B4D66"></path><path d="M20.7542 18.1814C20.4486 17.8795 20.0705 17.6461 19.6414 17.5103L16.2287 16.4298L12.5008 16.2988L8.77131 16.4298L5.35867 17.5103C4.20418 17.8758 3.41956 18.9472 3.41956 20.1582V21.0905C5.60652 23.4014 8.66619 24.878 12.0711 24.9928C15.8859 24.1455 19.0598 21.5956 20.7542 18.1814V18.1814Z" fill="#4A80AA"></path><path d="M21.5805 21.0904V20.1581C21.5805 19.3019 21.1879 18.5158 20.55 17.9993C18.7379 21.6919 15.1583 24.36 10.9139 24.8995C11.4262 24.9644 11.948 24.999 12.4777 25C12.9866 24.9992 13.4888 24.9697 13.9828 24.9129C16.9628 24.5608 19.6217 23.1603 21.5805 21.0904Z" fill="#407093"></path><path d="M12.783 24.8129C13.5393 23.3114 15.5087 19.0479 14.9472 16.3847L12.5008 15.4326L10.0522 16.3848C9.47327 19.1301 11.5839 23.576 12.2827 24.9438C12.4508 24.9035 12.6176 24.8598 12.783 24.8129V24.8129Z" fill="#E4F6FF"></path><path d="M14.0721 23.6225L13.0803 19.7203H11.9198L10.9303 23.6119L12.1538 24.974C12.4644 24.9029 12.7707 24.8204 13.0723 24.7271L14.0721 23.6225Z" fill="#E28086"></path><path d="M12.173 24.9954C12.2743 24.998 12.3758 24.9998 12.4777 25C12.5956 24.9998 12.7131 24.9978 12.8303 24.9945L13.4606 24.2982C12.9645 24.4723 12.4542 24.6159 11.9318 24.7269L12.173 24.9954Z" fill="#DD636E"></path><path d="M14.5886 16.0246V13.8241H10.4099V16.0246C10.4099 17.1785 12.4992 18.4389 12.4992 18.4389C12.4992 18.4389 14.5886 17.1785 14.5886 16.0246Z" fill="#FFDDCE"></path><path d="M17.1918 8.8046H16.3931C15.9488 8.8046 15.5887 8.44449 15.5887 8.00025V7.56007C15.5887 6.98141 15.0226 6.57228 14.4731 6.75387C13.1917 7.1774 11.8082 7.1775 10.5267 6.75416L10.5252 6.75367C9.97578 6.57218 9.40972 6.98131 9.40972 7.55992V8.0003C9.40972 8.44454 9.04961 8.80465 8.60537 8.80465H7.80664V10.12C7.80664 10.4561 8.0791 10.7286 8.41523 10.7286C8.52129 10.7286 8.60757 10.8116 8.61426 10.9175C8.74258 12.9521 10.4324 14.5627 12.4993 14.5627C14.5662 14.5627 16.256 12.9521 16.3843 10.9175C16.391 10.8117 16.4772 10.7286 16.5833 10.7286C16.9194 10.7286 17.1919 10.4561 17.1919 10.12V8.8046H17.1918Z" fill="#FFDDCE"></path><path d="M16.3931 8.8046C15.9488 8.8046 15.5887 8.44449 15.5887 8.00025V7.56007C15.5887 6.9814 15.0226 6.57227 14.4732 6.75386C14.3214 6.80401 14.1681 6.84776 14.0138 6.88604V11.2304C13.9924 12.6439 13.2179 13.874 12.0741 14.5389C12.2138 14.5541 12.3555 14.5626 12.4992 14.5626C14.5661 14.5626 16.2559 12.952 16.3842 10.9174C16.3909 10.8116 16.4772 10.7285 16.5833 10.7285C16.9193 10.7285 17.1919 10.456 17.1919 10.1199V8.80455H16.3931V8.8046Z" fill="#FFCBBE"></path><path d="M10.4099 15.4326L8.7713 16.764L10.4897 18.8887C10.6987 19.0922 11.0277 19.1047 11.2516 18.9177L12.5439 17.8382L10.4099 15.4326Z" fill="#F4FBFF"></path><path d="M14.5894 15.4326L12.5439 17.8382L13.7584 18.8767C13.9809 19.0669 14.3115 19.0574 14.5226 18.8546L16.2287 16.764L14.5894 15.4326Z" fill="#F4FBFF"></path><path d="M10.4099 15.4326L8.0048 16.6142C7.8217 16.7042 7.74816 16.9269 7.84167 17.1082L8.31286 18.0218C8.43498 18.2585 8.38991 18.547 8.20144 18.7352C8.10441 18.832 7.99934 18.9369 7.90827 19.0278C7.74528 19.1905 7.68674 19.4309 7.75852 19.6497C8.32741 21.3839 11.0654 24.0358 12.1016 24.9953C12.1713 24.9972 12.2411 24.9984 12.3111 24.9992C11.5596 23.5376 8.89689 17.9848 10.4099 15.4326V15.4326Z" fill="#365E7D"></path><path d="M16.7978 18.7351C16.6093 18.5469 16.5643 18.2584 16.6864 18.0217L17.1576 17.1082C17.2511 16.9269 17.1775 16.7041 16.9944 16.6142L14.5893 15.4326C16.1019 17.9841 13.4411 23.5346 12.6888 24.998C12.7595 24.9968 12.8301 24.9951 12.9005 24.9927C13.9388 24.0311 16.6724 21.3824 17.2407 19.6498C17.3125 19.4309 17.2539 19.1905 17.091 19.0278C16.9999 18.9369 16.8948 18.8319 16.7978 18.7351V18.7351Z" fill="#365E7D"></path><path d="M12.5439 17.8382L11.2714 18.9009L11.9197 19.7203H13.0802L13.7286 18.8526L12.5439 17.8382Z" fill="#DD636E"></path></symbol><symbol id="visa2fly_white_icon" xmlns="http://www.w3.org/2000/svg" width="100px" height="60px" viewBox="0 0 1458.7 211.12"><path data-name="Path 2" d="M226.2-203,139.2,0H82.65L-4.06-203H58L113.1-70.76,169.36-203Zm11.89,0h57.42V0H238.09ZM407.74,4.06a187.674,187.674,0,0,1-47.85-6.09q-23.2-6.09-37.7-16.24l18.85-42.34a121.975,121.975,0,0,0,31.61,14.5,120.331,120.331,0,0,0,35.38,5.51q33.06,0,33.06-16.53,0-8.7-9.425-12.905t-30.3-8.845a289.25,289.25,0,0,1-38.28-10.585,64.431,64.431,0,0,1-26.39-18.125q-11.02-12.47-11.02-33.64a58.237,58.237,0,0,1,10.15-33.5q10.15-14.935,30.3-23.635t49.445-8.7a174.419,174.419,0,0,1,39.44,4.5,120.778,120.778,0,0,1,34.22,13.195l-17.69,42.63q-29-15.66-56.26-15.66-17.11,0-24.94,5.075t-7.83,13.2q0,8.12,9.28,12.18t29.87,8.41q23.2,4.93,38.425,10.585a66.353,66.353,0,0,1,26.39,17.98Q497.64-82.65,497.64-61.48a57.1,57.1,0,0,1-10.15,33.06Q477.34-13.63,457.04-4.785T407.74,4.06Zm252.3-43.5H574.2L558.25,0H499.67l89.61-203h56.55L735.73,0H675.99ZM643.22-81.78l-26.1-64.96-26.1,64.96Zm255.2,36.25V0H740.37V-35.96l75.98-71.05q11.02-10.44,14.79-17.835a32.584,32.584,0,0,0,3.77-14.935q0-9.86-6.67-15.37t-19.43-5.51a43.033,43.033,0,0,0-20.735,5.075A41.634,41.634,0,0,0,772.56-140.94l-42.63-23.78a83.42,83.42,0,0,1,33.35-31.03q21.46-11.31,50.75-11.31,23.2,0,41.035,7.54t27.84,21.605q10,14.065,10.005,32.625a70.5,70.5,0,0,1-7.1,31.175Q878.7-99.47,858.4-80.91L820.12-45.53Zm84.68-113.1v44.66h89.61V-69.6H983.1V0H925.68V-203h159.21v44.37ZM1111.86-203h57.42V-45.53h96.86V0H1111.86ZM1376.92-72.79V0H1319.5V-73.66L1242.07-203h60.61l48.14,80.62L1398.96-203h55.68Z" transform="translate(4.06 207.06)" fill="#fff"></path></symbol><symbol id="arrow-left" xmlns="http://www.w3.org/2000/svg" width="15" height="15" viewBox="0 0 24 24" fill="none" stroke="currentColor" stroke-width="2" stroke-linecap="round" stroke-linejoin="round" class="feather feather-arrow-left"><line x1="19" y1="12" x2="5" y2="12"></line><polyline points="12 19 5 12 12 5"></polyline></symbol><symbol id="youtube" height="14" viewBox="-21 -117 682.66672 682" width="14" xmlns="http://www.w3.org/2000/svg"><path d="m626.8125 64.035156c-7.375-27.417968-28.992188-49.03125-56.40625-56.414062-50.082031-13.703125-250.414062-13.703125-250.414062-13.703125s-200.324219 0-250.40625 13.183593c-26.886719 7.375-49.03125 29.519532-56.40625 56.933594-13.179688 50.078125-13.179688 153.933594-13.179688 153.933594s0 104.378906 13.179688 153.933594c7.382812 27.414062 28.992187 49.027344 56.410156 56.410156 50.605468 13.707031 250.410156 13.707031 250.410156 13.707031s200.324219 0 250.40625-13.183593c27.417969-7.378907 49.03125-28.992188 56.414062-56.40625 13.175782-50.082032 13.175782-153.933594 13.175782-153.933594s.527344-104.382813-13.183594-154.460938zm-370.601562 249.878906v-191.890624l166.585937 95.945312zm0 0"></path></symbol></svg>