<?xml version="1.0" encoding="UTF-8" standalone="no"?><svg xmlns="http://www.w3.org/2000/svg" xmlns:xlink="http://www.w3.org/1999/xlink"><symbol id="add_insurer" height="20pt" viewBox="0 0 512 512" width="20pt" style="fill: currentColor" xmlns="http://www.w3.org/2000/svg"><path d="m256 0c-141.164062 0-256 114.835938-256 256s114.835938 256 256 256 256-114.835938 256-256-114.835938-256-256-256zm112 277.332031h-90.667969v90.667969c0 11.777344-9.554687 21.332031-21.332031 21.332031s-21.332031-9.554687-21.332031-21.332031v-90.667969h-90.667969c-11.777344 0-21.332031-9.554687-21.332031-21.332031s9.554687-21.332031 21.332031-21.332031h90.667969v-90.667969c0-11.777344 9.554687-21.332031 21.332031-21.332031s21.332031 9.554687 21.332031 21.332031v90.667969h90.667969c11.777344 0 21.332031 9.554687 21.332031 21.332031s-9.554687 21.332031-21.332031 21.332031zm0 0"></path></symbol><symbol id="add_traveller" xmlns="http://www.w3.org/2000/svg" viewBox="0 0 24 24" width="1em" height="1em" fill="currentColor"><path d="M9 11H7v2h2v-2zm4 0h-2v2h2v-2zm4 0h-2v2h2v-2zm2-7h-1V2h-2v2H8V2H6v2H5c-1.11 0-1.99.9-1.99 2L3 20c0 1.1.89 2 2 2h14c1.1 0 2-.9 2-2V6c0-1.1-.9-2-2-2zm0 16H5V9h14v11z"></path><path d="M0 0h24v24H0z" fill="none"></path></symbol><symbol id="arrow-left" xmlns="http://www.w3.org/2000/svg" width="15" height="15" viewBox="0 0 24 24" fill="none" stroke="currentColor" stroke-width="2" stroke-linecap="round" stroke-linejoin="round" class="feather feather-arrow-left"><line x1="19" y1="12" x2="5" y2="12"></line><polyline points="12 19 5 12 12 5"></polyline></symbol><symbol id="chat" version="1.1" height="22px" width="22px" xmlns="http://www.w3.org/2000/svg" xmlns:xlink="http://www.w3.org/1999/xlink" x="0px" y="0px" viewBox="0 0 512.001 512.001" fill="currentColor" style="enable-background:new 0 0 512.001 512.001;" xml:space="preserve"><g><g><g><path d="M468.53,306.575c-4.14-10.239-15.798-15.188-26.038-11.046c-10.241,4.14-15.187,15.797-11.047,26.038L455,379.833
				l-69.958-30.839c-5.064-2.232-10.827-2.267-15.917-0.095c-23.908,10.201-49.52,15.373-76.124,15.373
				c-107.073,0-179-83.835-179-162.136c0-89.402,80.299-162.136,179-162.136s179,72.734,179,162.136
				c0,6.975-0.65,15.327-1.781,22.913c-1.63,10.925,5.905,21.102,16.83,22.732c10.926,1.634,21.103-5.905,22.732-16.83
				c1.431-9.59,2.219-19.824,2.219-28.815c0-54.33-23.006-105.308-64.783-143.543C405.936,20.809,351.167,0,293.001,0
				S180.067,20.809,138.784,58.592c-37.332,34.168-59.66,78.516-63.991,126.335C27.836,216.023,0.001,265.852,0.001,319.525
				c0,33.528,10.563,65.34,30.67,92.717L1.459,484.504c-3.051,7.546-1.224,16.189,4.621,21.855
				c3.809,3.694,8.828,5.642,13.925,5.642c2.723-0.001,5.469-0.556,8.063-1.7l84.229-37.13c21.188,7.887,43.585,11.88,66.703,11.88
				c0.5,0,0.991-0.039,1.482-0.075c33.437-0.253,65.944-9.048,94.098-25.507c25.218-14.744,45.962-34.998,60.505-58.917
				c14.199-2.55,28.077-6.402,41.547-11.551l107.301,47.3c2.595,1.143,5.34,1.7,8.063,1.7c5.097-0.001,10.117-1.949,13.926-5.642
				c5.845-5.666,7.672-14.308,4.621-21.855L468.53,306.575z M179.002,445c-0.273,0-0.539,0.03-0.81,0.041
				c-20.422-0.104-40.078-4.118-58.435-11.95c-5.089-2.173-10.852-2.138-15.916,0.095l-46.837,20.646l15.109-37.375
				c2.793-6.909,1.512-14.799-3.322-20.47c-18.835-22.097-28.79-48.536-28.79-76.462c0-31.961,13.445-62.244,36.969-85.206
				c7.324,39.925,27.989,78.117,59.162,108.119c38.791,37.333,90.101,58.961,145.506,61.565
				C255.626,429.608,218.402,445,179.002,445z"></path><circle cx="292.001" cy="203" r="20"></circle><circle cx="372.001" cy="203" r="20"></circle><circle cx="212.001" cy="203" r="20"></circle></g></g></g></symbol><symbol id="calender" xmlns="http://www.w3.org/2000/svg" viewBox="0 0 24 24" width="1em" height="1em" fill="currentColor"><path d="M9 11H7v2h2v-2zm4 0h-2v2h2v-2zm4 0h-2v2h2v-2zm2-7h-1V2h-2v2H8V2H6v2H5c-1.11 0-1.99.9-1.99 2L3 20c0 1.1.89 2 2 2h14c1.1 0 2-.9 2-2V6c0-1.1-.9-2-2-2zm0 16H5V9h14v11z"></path><path d="M0 0h24v24H0z" fill="none"></path></symbol><symbol id="chatbox_mail" xmlns="http://www.w3.org/2000/svg" width="12px" height="12px" fill="currentColor" class="bi bi-envelope-fill" viewBox="0 0 16 16"><path d="M.05 3.555A2 2 0 0 1 2 2h12a2 2 0 0 1 1.95 1.555L8 8.414.05 3.555zM0 4.697v7.104l5.803-3.558L0 4.697zM6.761 8.83l-6.57 4.027A2 2 0 0 0 2 14h12a2 2 0 0 0 1.808-1.144l-6.57-4.027L8 9.586l-1.239-.757zm3.436-.586L16 11.801V4.697l-5.803 3.546z"></path></symbol><symbol id="chatbox_chat" version="1.1" height="22px" width="22px" xmlns="http://www.w3.org/2000/svg" xmlns:xlink="http://www.w3.org/1999/xlink" x="0px" y="0px" viewBox="0 0 512.001 512.001" fill="#fff" style="enable-background: new 0 0 512.001 512.001" xml:space="preserve"><g><g><g><path d="M468.53,306.575c-4.14-10.239-15.798-15.188-26.038-11.046c-10.241,4.14-15.187,15.797-11.047,26.038L455,379.833
				l-69.958-30.839c-5.064-2.232-10.827-2.267-15.917-0.095c-23.908,10.201-49.52,15.373-76.124,15.373
				c-107.073,0-179-83.835-179-162.136c0-89.402,80.299-162.136,179-162.136s179,72.734,179,162.136
				c0,6.975-0.65,15.327-1.781,22.913c-1.63,10.925,5.905,21.102,16.83,22.732c10.926,1.634,21.103-5.905,22.732-16.83
				c1.431-9.59,2.219-19.824,2.219-28.815c0-54.33-23.006-105.308-64.783-143.543C405.936,20.809,351.167,0,293.001,0
				S180.067,20.809,138.784,58.592c-37.332,34.168-59.66,78.516-63.991,126.335C27.836,216.023,0.001,265.852,0.001,319.525
				c0,33.528,10.563,65.34,30.67,92.717L1.459,484.504c-3.051,7.546-1.224,16.189,4.621,21.855
				c3.809,3.694,8.828,5.642,13.925,5.642c2.723-0.001,5.469-0.556,8.063-1.7l84.229-37.13c21.188,7.887,43.585,11.88,66.703,11.88
				c0.5,0,0.991-0.039,1.482-0.075c33.437-0.253,65.944-9.048,94.098-25.507c25.218-14.744,45.962-34.998,60.505-58.917
				c14.199-2.55,28.077-6.402,41.547-11.551l107.301,47.3c2.595,1.143,5.34,1.7,8.063,1.7c5.097-0.001,10.117-1.949,13.926-5.642
				c5.845-5.666,7.672-14.308,4.621-21.855L468.53,306.575z M179.002,445c-0.273,0-0.539,0.03-0.81,0.041
				c-20.422-0.104-40.078-4.118-58.435-11.95c-5.089-2.173-10.852-2.138-15.916,0.095l-46.837,20.646l15.109-37.375
				c2.793-6.909,1.512-14.799-3.322-20.47c-18.835-22.097-28.79-48.536-28.79-76.462c0-31.961,13.445-62.244,36.969-85.206
				c7.324,39.925,27.989,78.117,59.162,108.119c38.791,37.333,90.101,58.961,145.506,61.565
				C255.626,429.608,218.402,445,179.002,445z"></path><circle cx="292.001" cy="203" r="20"></circle><circle cx="372.001" cy="203" r="20"></circle><circle cx="212.001" cy="203" r="20"></circle></g></g></g></symbol><symbol id="chatbox_phone" version="1.1" xmlns="http://www.w3.org/2000/svg" xmlns:xlink="http://www.w3.org/1999/xlink" height="10px" width="10px" x="0px" y="0px" viewBox="0 0 384 384" style="enable-background: new 0 0 384 384;" xml:space="preserve"><g><g><path d="M353.188,252.052c-23.51,0-46.594-3.677-68.469-10.906c-10.719-3.656-23.896-0.302-30.438,6.417l-43.177,32.594
             c-50.073-26.729-80.917-57.563-107.281-107.26l31.635-42.052c8.219-8.208,11.167-20.198,7.635-31.448
             c-7.26-21.99-10.948-45.063-10.948-68.583C132.146,13.823,118.323,0,101.333,0H30.813C13.823,0,0,13.823,0,30.813
             C0,225.563,158.438,384,353.188,384c16.99,0,30.813-13.823,30.813-30.813v-70.323C384,265.875,370.177,252.052,353.188,252.052z"></path></g></g></symbol><symbol id="chatbox_minimize" version="1.1" xmlns="http://www.w3.org/2000/svg" xmlns:xlink="http://www.w3.org/1999/xlink" x="0px" y="0px" width="1em" height="1em" viewBox="0 0 124 124" fill="#fff" style="enable-background: new 0 0 124 124; width: 12px" xml:space="preserve"><g><path d="M112,50H12C5.4,50,0,55.4,0,62c0,6.6,5.4,12,12,12h100c6.6,0,12-5.4,12-12C124,55.4,118.6,50,112,50z"></path></g></symbol><symbol id="correct" width="19" height="19" viewBox="0 0 19 19" fill="none" xmlns="http://www.w3.org/2000/svg"><circle cx="9.5" cy="9.5" r="8.5" stroke="#5FBD6B" stroke-width="2"></circle><path d="M15.1565 5.64045C14.8716 5.35795 14.42 5.35795 14.1351 5.64045L7.30365 12.6544L4.88288 10.1689C4.60084 9.8691 4.13543 9.86083 3.84343 10.1504C3.5514 10.44 3.54334 10.9178 3.82539 11.2176C3.83129 11.2239 3.83732 11.2301 3.84343 11.2362L6.78393 14.2552C7.07097 14.5499 7.53633 14.5499 7.82337 14.2552L15.1746 6.70762C15.4566 6.40782 15.4485 5.93003 15.1565 5.64045Z" fill="#5FBD6B"></path></symbol><symbol id="coupon" xmlns="http://www.w3.org/2000/svg" width="24" height="24" viewBox="0 0 24 24"><path d="M21,4H3C2.447,4,2,4.447,2,5v14c0,0.553,0.447,1,1,1h18c0.553,0,1-0.447,1-1V5C22,4.447,21.553,4,21,4z M20,15 c-1.657,0-3,1.343-3,3H7c0-1.657-1.343-3-3-3V9c1.657,0,3-1.343,3-3h10c0,1.657,1.343,3,3,3V15z"></path><path d="M12,8c-2.206,0-4,1.794-4,4s1.794,4,4,4s4-1.794,4-4S14.206,8,12,8z M12,14c-1.103,0-2-0.897-2-2s0.897-2,2-2s2,0.897,2,2 S13.103,14,12,14z"></path></symbol><symbol id="decrement" height="10px" fill="currentColor" viewBox="0 -192 469.33333 469" width="10px" xmlns="http://www.w3.org/2000/svg"><path d="m437.332031.167969h-405.332031c-17.664062 0-32 14.335937-32 32v21.332031c0 17.664062 14.335938 32 32 32h405.332031c17.664063 0 32-14.335938 32-32v-21.332031c0-17.664063-14.335937-32-32-32zm0 0"></path></symbol><symbol id="double_arrow_up" version="1.1" xmlns="http://www.w3.org/2000/svg" xmlns:xlink="http://www.w3.org/1999/xlink" x="0px" y="0px" width="10px" height="10px" viewBox="0 0 970.586 970.586" fill="currentColor" style="enable-background: new 0 0 970.586 970.586;" xml:space="preserve"><g><path d="M44.177,220.307l363.9,296.4c22.101,18,48.9,27,75.8,27c26.901,0,53.701-9,75.801-27l366.699-298.7
		c51.4-41.9,59.101-117.4,17.2-168.8c-41.8-51.4-117.399-59.1-168.8-17.3l-290.901,237l-288.1-234.7c-51.4-41.8-127-34.1-168.8,17.3
		C-14.923,102.907-7.123,178.407,44.177,220.307z"></path><path d="M44.177,642.207l363.9,296.399c22.101,18,48.9,27,75.8,27c26.901,0,53.701-9,75.801-27l366.699-298.7
		c51.4-41.899,59.101-117.399,17.2-168.8c-41.899-51.399-117.399-59.1-168.8-17.2l-290.901,236.9l-288.1-234.6
		c-51.4-41.9-127-34.101-168.8,17.199C-14.923,524.807-7.123,600.406,44.177,642.207z"></path></g></symbol><symbol id="chevron-left" class="bi bi-chevron-left" width="1em" height="1em" viewBox="0 0 16 16" fill="#000000" xmlns="http://www.w3.org/2000/svg"><path fill-rule="evenodd" d="M11.354 1.646a.5.5 0 010 .708L5.707 8l5.647 5.646a.5.5 0 01-.708.708l-6-6a.5.5 0 010-.708l6-6a.5.5 0 01.708 0z" clip-rule="evenodd"></path></symbol><symbol id="double_arrow_down" xmlns="http://www.w3.org/2000/svg" xmlns:xlink="http://www.w3.org/1999/xlink" version="1.1" x="0px" y="0px" width="10px" height="10px" viewBox="0 0 970.504 970.503" style="enable-background: new 0 0 970.504 970.503" xml:space="preserve" class="hovered-paths"><g><g><path d="M120.027,962.802c26.6,0,53.5-8.801,75.7-27l288.1-234.7l290.899,237c22.301,18.1,49.101,27,75.7,27   c34.8,0,69.4-15.101,93.101-44.2c41.899-51.4,34.1-127-17.2-168.8l-366.7-298.8c-44.1-36-107.5-36-151.6,0l-363.8,296.5   c-51.4,41.8-59.1,117.399-17.3,168.8C50.727,947.702,85.227,962.802,120.027,962.802z" data-original="#000000" class="hovered-path active-path" fill="currentColor"></path><path d="M120.027,541.902c26.6,0,53.5-8.8,75.7-27l288.1-234.7l290.899,237c22.301,18.101,49.101,27,75.7,27   c34.8,0,69.4-15.1,93.101-44.2c41.899-51.399,34.1-127-17.2-168.8l-366.7-298.8c-44.1-36-107.5-36-151.6,0l-363.8,296.4   c-51.4,41.9-59.1,117.5-17.3,168.9C50.727,526.802,85.227,541.902,120.027,541.902z" data-original="#000000" class="hovered-path active-path" fill="currentColor"></path></g></g></symbol><symbol id="error" width="19" height="19" viewBox="0 0 19 19" fill="none" xmlns="http://www.w3.org/2000/svg"><circle cx="9.5" cy="9.5" r="8.5" stroke="#FF0000" stroke-width="2"></circle><path d="M9.51341 12.7811C8.78244 12.7811 8.16971 13.3739 8.16971 14.081C8.16971 14.7882 8.78244 15.381 9.51341 15.381C10.2175 15.381 10.8571 14.7882 10.8249 14.1122C10.8571 13.3687 10.2498 12.7811 9.51341 12.7811Z" fill="#FF0000"></path><path d="M9.18022 3.65575C8.54062 3.83253 8.14288 4.3941 8.14288 5.07525C8.17513 5.48602 8.20201 5.90199 8.23426 6.31277C8.32563 7.87786 8.417 9.41176 8.50837 10.9769C8.54062 11.5072 8.96523 11.892 9.51346 11.892C10.0617 11.892 10.4917 11.4812 10.5186 10.9457C10.5186 10.6233 10.5186 10.3269 10.5508 9.99932C10.6099 8.99579 10.6744 7.99225 10.7335 6.98872C10.7658 6.33877 10.8249 5.68881 10.8572 5.03885C10.8572 4.80487 10.8249 4.59688 10.7335 4.3889C10.4594 3.80654 9.81983 3.51016 9.18022 3.65575Z" fill="#FF0000"></path></symbol><symbol id="download" class="bi bi-download" width="1em" height="1em" viewBox="0 0 16 16" fill="currentColor" xmlns="http://www.w3.org/2000/svg"><path fill-rule="evenodd" d="M.5 8a.5.5 0 01.5.5V12a1 1 0 001 1h12a1 1 0 001-1V8.5a.5.5 0 011 0V12a2 2 0 01-2 2H2a2 2 0 01-2-2V8.5A.5.5 0 01.5 8z" clip-rule="evenodd"></path><path fill-rule="evenodd" d="M5 7.5a.5.5 0 01.707 0L8 9.793 10.293 7.5a.5.5 0 11.707.707l-2.646 2.647a.5.5 0 01-.708 0L5 8.207A.5.5 0 015 7.5z" clip-rule="evenodd"></path><path fill-rule="evenodd" d="M8 1a.5.5 0 01.5.5v8a.5.5 0 01-1 0v-8A.5.5 0 018 1z" clip-rule="evenodd"></path></symbol><symbol id="faq_icon" enable-background="new 0 0 512 512" viewBox="0 0 512 512" width="30" height="30" xmlns="http://www.w3.org/2000/svg"><g><g><circle cx="91" cy="331" fill="#ffe1ba" r="60"></circle><path d="m151 331c0-33.091-26.909-60-60-60v120c33.091 0 60-26.909 60-60z" fill="#ffbfab"></path><path d="m91 391c-49.629 0-91 41.371-91 91v30h91 90v-30c0-49.629-40.371-91-90-91z" fill="#47568c"></path><path d="m181 512v-30c0-49.629-40.371-91-90-91v121z" fill="#29376d"></path><circle cx="421" cy="331" fill="#ffe1ba" r="60"></circle><path d="m481 331c0-33.091-26.909-60-60-60v120c33.091 0 60-26.909 60-60z" fill="#ffbfab"></path><path d="m512 482c0-49.629-41.371-91-91-91s-90 41.371-90 91v30h90 91z" fill="#47568c"></path><path d="m512 512v-30c0-49.629-41.371-91-91-91v121z" fill="#29376d"></path></g><path d="m256 0c-74.443 0-135 60.557-135 135v30c0 74.443 60.557 135 135 135s135-60.557 135-135v-30c0-74.443-60.557-135-135-135z" fill="#66b3ff"></path><path d="m256 300c74.443 0 135-60.557 135-135v-30c0-74.443-60.557-135-135-135z" fill="#4d88ff"></path><path d="m241 210h30v30h-30z" fill="#edf5ff"></path><path d="m301 105c0 14.24-6.86 27.79-18.33 36.24-7.3 5.39-11.67 14-11.67 23.06v15.7h-30v-15.7c0-14.52 5.46-28.47 15-39.14 2.65-2.97 5.62-5.68 8.88-8.08 3.88-2.85 6.12-7.26 6.12-12.08 0-8.28-6.72-15-15-15s-15 6.72-15 15v15h-30v-15c0-24.81 20.19-45 45-45s45 20.19 45 45z" fill="#edf5ff"></path><g fill="#d5e8fe"><path d="m256 210h15v30h-15z"></path><path d="m301 105c0 14.24-6.86 27.79-18.33 36.24-7.3 5.39-11.67 14-11.67 23.06v15.7h-15v-54.84c2.65-2.97 5.62-5.68 8.88-8.08 3.88-2.85 6.12-7.26 6.12-12.08 0-8.28-6.72-15-15-15v-30c24.81 0 45 20.19 45 45z"></path></g></g></symbol><symbol id="facebook" enable-background="new 0 0 24 24" height="14" viewBox="0 0 24 24" width="14" xmlns="http://www.w3.org/2000/svg"><path d="m15.997 3.985h2.191v-3.816c-.378-.052-1.678-.169-3.192-.169-3.159 0-5.323 1.987-5.323 5.639v3.361h-3.486v4.266h3.486v10.734h4.274v-10.733h3.345l.531-4.266h-3.877v-2.939c.001-1.233.333-2.077 2.051-2.077z"></path></symbol><symbol id="hand_pointer" xmlns="http://www.w3.org/2000/svg" xmlns:xlink="http://www.w3.org/1999/xlink" version="1.1" x="0px" y="0px" viewBox="0 0 286.614 286.614" style="enable-background: new 0 0 286.614 286.614" xml:space="preserve" width="16px" height="16px"><g><g><path d="M270.126,105.055H146.394l23.487-18.548c7.147-5.643,8.364-16.011,2.721-23.156c-5.643-7.146-16.012-8.365-23.156-2.721   c0,0-40.819,33.689-60.28,47.603c-13.14,9.395-25.402,20.959-25.402,38.096v39.537c0,24.077,19.588,43.666,43.665,43.666   c17.677,0,61.369,0,77.789,0c9.106,0,16.487-7.382,16.487-16.487c0-5.927-3.138-11.108-7.833-14.014h5.359   c9.105,0,16.487-7.382,16.487-16.487c0-5.927-3.138-11.108-7.833-14.014h3.71c9.105,0,16.487-7.382,16.487-16.487   c0-5.927-3.138-11.108-7.832-14.014h49.874c9.105,0,16.487-7.382,16.487-16.487S279.232,105.055,270.126,105.055z" data-original="#000000" class="active-path" fill="currentColor"></path><path d="M37.885,110.781H9.282c-5.126,0-9.282,4.156-9.282,9.282V220.25c0,5.126,4.156,9.282,9.282,9.282h28.603   c5.126,0,9.282-4.156,9.282-9.282V120.063C47.167,114.936,43.011,110.781,37.885,110.781z" data-original="#000000" class="active-path" fill="currentColor"></path></g></g></symbol><symbol id="home_step_1" xmlns="http://www.w3.org/2000/svg" xmlns:xlink="http://www.w3.org/1999/xlink" xmlns:svgjs="http://svgjs.com/svgjs" version="1.1" width="40" height="40" x="0" y="0" viewBox="0 0 512 512" style="enable-background:new 0 0 512 512" xml:space="preserve"><g><g xmlns="http://www.w3.org/2000/svg"><path d="m446.605 124.392-119.997-119.997c-2.801-2.802-6.624-4.395-10.608-4.395h-210c-24.813 0-45 20.187-45 45v422c0 24.813 20.187 45 45 45h300c24.813 0 45-20.187 45-45v-332c0-4.09-1.717-7.931-4.395-10.608zm-115.605-73.179 68.787 68.787h-53.787c-8.271 0-15-6.729-15-15zm75 430.787h-300c-8.271 0-15-6.729-15-15v-422c0-8.271 6.729-15 15-15h195v75c0 24.813 20.187 45 45 45h75v317c0 8.271-6.729 15-15 15z" fill="#000080" data-original="#000000"></path><path d="m346 212h-180c-8.284 0-15 6.716-15 15s6.716 15 15 15h180c8.284 0 15-6.716 15-15s-6.716-15-15-15z" fill="#000080" data-original="#000000"></path><path d="m346 272h-180c-8.284 0-15 6.716-15 15s6.716 15 15 15h180c8.284 0 15-6.716 15-15s-6.716-15-15-15z" fill="#000080" data-original="#000000"></path><path d="m346 332h-180c-8.284 0-15 6.716-15 15s6.716 15 15 15h180c8.284 0 15-6.716 15-15s-6.716-15-15-15z" fill="#000080" data-original="#000000"></path><path d="m286 392h-120c-8.284 0-15 6.716-15 15s6.716 15 15 15h120c8.284 0 15-6.716 15-15s-6.716-15-15-15z" fill="#000080" data-original="#000000"></path></g></g></symbol><symbol id="home_step_3" xmlns="http://www.w3.org/2000/svg" xmlns:xlink="http://www.w3.org/1999/xlink" xmlns:svgjs="http://svgjs.com/svgjs" version="1.1" width="40" height="40" x="0" y="0" viewBox="0 0 465.2 465.2" style="enable-background:new 0 0 512 512" xml:space="preserve"><g><g xmlns="http://www.w3.org/2000/svg"><g><g><path d="M279.591,423.714c-3.836,0.956-7.747,1.805-11.629,2.52c-10.148,1.887-16.857,11.647-14.98,21.804     c0.927,4.997,3.765,9.159,7.618,11.876c3.971,2.795,9.025,4.057,14.175,3.099c4.623-0.858,9.282-1.867,13.854-3.008     c10.021-2.494,16.126-12.646,13.626-22.662C299.761,427.318,289.618,421.218,279.591,423.714z" fill="#000080" data-original="#000000"></path><path d="M417.887,173.047c1.31,3.948,3.811,7.171,6.97,9.398c4.684,3.299,10.813,4.409,16.662,2.475     c9.806-3.256,15.119-13.83,11.875-23.631c-1.478-4.468-3.118-8.95-4.865-13.314c-3.836-9.59-14.714-14.259-24.309-10.423     c-9.585,3.834-14.256,14.715-10.417,24.308C415.271,165.528,416.646,169.293,417.887,173.047z" fill="#000080" data-original="#000000"></path><path d="M340.36,397.013c-3.299,2.178-6.704,4.286-10.134,6.261c-8.949,5.162-12.014,16.601-6.854,25.546     c1.401,2.433,3.267,4.422,5.416,5.942c5.769,4.059,13.604,4.667,20.127,0.909c4.078-2.352,8.133-4.854,12.062-7.452     c8.614-5.691,10.985-17.294,5.291-25.912C360.575,393.686,348.977,391.318,340.36,397.013z" fill="#000080" data-original="#000000"></path><path d="M465.022,225.279c-0.407-10.322-9.101-18.356-19.426-17.953c-10.312,0.407-18.352,9.104-17.947,19.422     c0.155,3.945,0.195,7.949,0.104,11.89c-0.145,6.473,3.021,12.243,7.941,15.711c2.931,2.064,6.488,3.313,10.345,3.401     c10.322,0.229,18.876-7.958,19.105-18.285C465.247,234.756,465.208,229.985,465.022,225.279z" fill="#000080" data-original="#000000"></path><path d="M414.835,347.816c-8.277-6.21-19.987-4.524-26.186,3.738c-2.374,3.164-4.874,6.289-7.434,9.298     c-6.69,7.86-5.745,19.666,2.115,26.361c0.448,0.38,0.901,0.729,1.371,1.057c7.814,5.509,18.674,4.243,24.992-3.171     c3.057-3.59,6.037-7.323,8.874-11.102C424.767,365.735,423.089,354.017,414.835,347.816z" fill="#000080" data-original="#000000"></path><path d="M442.325,280.213c-9.855-3.09-20.35,2.396-23.438,12.251c-1.182,3.765-2.492,7.548-3.906,11.253     c-3.105,8.156-0.13,17.13,6.69,21.939c1.251,0.879,2.629,1.624,4.126,2.19c9.649,3.682,20.454-1.159,24.132-10.812     c1.679-4.405,3.237-8.906,4.646-13.382C457.66,293.795,452.178,283.303,442.325,280.213z" fill="#000080" data-original="#000000"></path><path d="M197.999,426.402c-16.72-3.002-32.759-8.114-47.968-15.244c-0.18-0.094-0.341-0.201-0.53-0.287     c-3.584-1.687-7.162-3.494-10.63-5.382c-0.012-0.014-0.034-0.023-0.053-0.031c-6.363-3.504-12.573-7.381-18.606-11.628     C32.24,331.86,11.088,209.872,73.062,121.901c13.476-19.122,29.784-35.075,47.965-47.719c0.224-0.156,0.448-0.311,0.67-0.468     c64.067-44.144,151.06-47.119,219.089-1.757l-14.611,21.111c-4.062,5.876-1.563,10.158,5.548,9.518l63.467-5.682     c7.12-0.64,11.378-6.799,9.463-13.675L387.61,21.823c-1.908-6.884-6.793-7.708-10.859-1.833l-14.645,21.161     C312.182,7.638,252.303-5.141,192.87,5.165c-5.986,1.036-11.888,2.304-17.709,3.78c-0.045,0.008-0.081,0.013-0.117,0.021     c-0.225,0.055-0.453,0.128-0.672,0.189C123.122,22.316,78.407,52.207,46.5,94.855c-0.269,0.319-0.546,0.631-0.8,0.978     c-1.061,1.429-2.114,2.891-3.145,4.353c-1.686,2.396-3.348,4.852-4.938,7.308c-0.199,0.296-0.351,0.597-0.525,0.896     C10.762,149.191-1.938,196.361,0.24,244.383c0.005,0.158-0.004,0.317,0,0.479c0.211,4.691,0.583,9.447,1.088,14.129     c0.027,0.302,0.094,0.588,0.145,0.89c0.522,4.708,1.177,9.427,1.998,14.145c8.344,48.138,31.052,91.455,65.079,125.16     c0.079,0.079,0.161,0.165,0.241,0.247c0.028,0.031,0.059,0.047,0.086,0.076c9.142,9.017,19.086,17.357,29.793,24.898     c28.02,19.744,59.221,32.795,92.729,38.808c10.167,1.827,19.879-4.941,21.703-15.103     C214.925,437.943,208.163,428.223,197.999,426.402z" fill="#000080" data-original="#000000"></path><path d="M221.124,83.198c-8.363,0-15.137,6.78-15.137,15.131v150.747l137.87,71.271c2.219,1.149,4.595,1.69,6.933,1.69     c5.476,0,10.765-2.982,13.454-8.185c3.835-7.426,0.933-16.549-6.493-20.384l-121.507-62.818V98.329     C236.243,89.978,229.477,83.198,221.124,83.198z" fill="#000080" data-original="#000000"></path></g></g></g><g xmlns="http://www.w3.org/2000/svg"></g><g xmlns="http://www.w3.org/2000/svg"></g><g xmlns="http://www.w3.org/2000/svg"></g><g xmlns="http://www.w3.org/2000/svg"></g><g xmlns="http://www.w3.org/2000/svg"></g><g xmlns="http://www.w3.org/2000/svg"></g><g xmlns="http://www.w3.org/2000/svg"></g><g xmlns="http://www.w3.org/2000/svg"></g><g xmlns="http://www.w3.org/2000/svg"></g><g xmlns="http://www.w3.org/2000/svg"></g><g xmlns="http://www.w3.org/2000/svg"></g><g xmlns="http://www.w3.org/2000/svg"></g><g xmlns="http://www.w3.org/2000/svg"></g><g xmlns="http://www.w3.org/2000/svg"></g><g xmlns="http://www.w3.org/2000/svg"></g></g></symbol><symbol id="home_step_2" xmlns="http://www.w3.org/2000/svg" xmlns:xlink="http://www.w3.org/1999/xlink" xmlns:svgjs="http://svgjs.com/svgjs" version="1.1" width="40" height="40" x="0" y="0" viewBox="0 0 512 512" style="enable-background:new 0 0 512 512" xml:space="preserve"><g><g xmlns="http://www.w3.org/2000/svg"><g><path d="M315,91H195c-8.284,0-15,6.716-15,15s6.716,15,15,15h120c8.284,0,15-6.716,15-15S323.284,91,315,91z" fill="#000080" data-original="#000000"></path></g></g><g xmlns="http://www.w3.org/2000/svg"><g><path d="M315,151H195c-8.284,0-15,6.716-15,15s6.716,15,15,15h120c8.284,0,15-6.716,15-15S323.284,151,315,151z" fill="#000080" data-original="#000000"></path></g></g><g xmlns="http://www.w3.org/2000/svg"><g><path d="M315,211H75c-8.284,0-15,6.716-15,15s6.716,15,15,15h240c8.284,0,15-6.716,15-15S323.284,211,315,211z" fill="#000080" data-original="#000000"></path></g></g><g xmlns="http://www.w3.org/2000/svg"><g><path d="M260.622,271H75c-8.284,0-15,6.716-15,15s6.716,15,15,15h185.622c8.284,0,15-6.716,15-15S268.906,271,260.622,271z" fill="#000080" data-original="#000000"></path></g></g><g xmlns="http://www.w3.org/2000/svg"><g><path d="M391,271V45c0-24.872-21.096-45-46-45H134.998c-3.803,0-7.715,1.504-10.648,4.438l-120,121C1.593,128.217,0,132.082,0,136    v331c0,24.813,20.187,45,45,45c31.646,0,42.154,0,42.109,0c46.003,0,136.525,0,303.891,0c66.233,0,121-54.534,121-121    C512,324.832,457.72,271,391,271z M120,51.427V121H51.002L120,51.427z M45,482c-8.271,0-15-6.729-15-15V151h105    c8.284,0,15-6.716,15-15V30h195c8.523,0,16,7.009,16,15v229.735c-31.838,8.084-58.657,28.725-74.757,56.265H75    c-8.284,0-15,6.716-15,15s6.716,15,15,15h198.828c-2.498,9.592-3.828,19.645-3.828,30H75c-8.284,0-15,6.716-15,15s6.716,15,15,15    h198.805c6.063,23.457,19.172,44.599,37.882,61H45z M391,482c-49.327,0-91-41.673-91-91c0-49.626,40.822-90,91-90    c50.178,0,91,40.374,91,90C482,440.327,440.327,482,391,482z" fill="#000080" data-original="#000000"></path></g></g><g xmlns="http://www.w3.org/2000/svg"><g><path d="M447.694,365.482c-5.808-5.906-15.306-5.985-21.213-0.176l-50.566,49.738l-20.484-19.823    c-5.953-5.761-15.449-5.605-21.21,0.348s-5.605,15.449,0.348,21.21l31,30c5.847,5.659,15.144,5.625,20.95-0.085l61-60    C453.425,380.885,453.503,371.388,447.694,365.482z" fill="#000080" data-original="#000000"></path></g></g><g xmlns="http://www.w3.org/2000/svg"></g><g xmlns="http://www.w3.org/2000/svg"></g><g xmlns="http://www.w3.org/2000/svg"></g><g xmlns="http://www.w3.org/2000/svg"></g><g xmlns="http://www.w3.org/2000/svg"></g><g xmlns="http://www.w3.org/2000/svg"></g><g xmlns="http://www.w3.org/2000/svg"></g><g xmlns="http://www.w3.org/2000/svg"></g><g xmlns="http://www.w3.org/2000/svg"></g><g xmlns="http://www.w3.org/2000/svg"></g><g xmlns="http://www.w3.org/2000/svg"></g><g xmlns="http://www.w3.org/2000/svg"></g><g xmlns="http://www.w3.org/2000/svg"></g><g xmlns="http://www.w3.org/2000/svg"></g><g xmlns="http://www.w3.org/2000/svg"></g></g></symbol><symbol id="home_step_4" xmlns="http://www.w3.org/2000/svg" xmlns:xlink="http://www.w3.org/1999/xlink" xmlns:svgjs="http://svgjs.com/svgjs" version="1.1" width="40" height="40" x="0" y="0" viewBox="0 0 480 480.0007" style="enable-background:new 0 0 512 512" xml:space="preserve" class="0"><g><path xmlns="http://www.w3.org/2000/svg" d="m463.199219 63.136719c-.914063-1.914063-2.550781-3.386719-4.550781-4.097657l-165.945313-58.582031c-4.164063-1.472656-8.734375.714844-10.207031 4.878907l-37.695313 106.664062h-16.488281v-27.199219c0-7.445312-3.457031-14.46875-9.355469-19.011719-5.902343-4.542968-13.574219-6.089843-20.773437-4.1875l-192.222656 50.664063v.144531c-3.484376.875-5.9335942 3.996094-5.960938 7.589844v336c0 13.253906 10.746094 24 24 24h224c13.253906 0 24-10.746094 24-24v-72.589844l64.160156 22.648438c4.167969 1.46875 8.738282-.714844 10.207032-4.882813l117.175781-331.925781c.703125-2.003906.578125-4.203125-.34375-6.113281zm-260.933594 13.894531c2.398437-.632812 4.960937-.117188 6.925781 1.394531 1.96875 1.515625 3.121094 3.859375 3.121094 6.34375v27.230469h-142.625zm53.734375 378.96875c0 4.417969-3.582031 8-8 8h-224c-4.417969 0-8-3.582031-8-8v-328h232c4.417969 0 8 3.582031 8 8zm65.761719-297.542969 10.238281-4.855469 4.878906 10.207032-38.871094 110.007812c-.703124 2-.585937 4.199219.328126 6.113282l8.328124 17.421874-2.574218 7.304688-15.867188-16.429688c-1.742187-1.820312-4.242187-2.707031-6.742187-2.402343l-9.480469 1.199219v-10.71875l6.824219-3.265626c1.914062-.914062 3.386719-2.550781 4.097656-4.550781l16-45.246093zm15.085937 53.398438 16.242188 26.097656-2.777344 7.863281-19.433594-17.015625zm-64.847656 39.496093v-21.984374l7.871094-.328126zm13.601562-38.558593-13.601562.558593v-10.648437l19.585938-6.832031zm48.335938 175.511719-61.9375-21.863282v-63.289062l7.496094-.9375 22.105468 22.867187c1.515626 1.546875 3.59375 2.410157 5.757813 2.398438.570313.003906 1.140625-.058594 1.695313-.183594 2.710937-.589844 4.917968-2.539063 5.839843-5.152344l8-22.632812c.707031-2 .589844-4.199219-.328125-6.109375l-8.367187-17.402344 10.945312-31 23.503907 20.601562c1.457031 1.277344 3.332031 1.984376 5.273437 1.984376.683594 0 1.363281-.089844 2.023437-.265626 2.566407-.671874 4.632813-2.570312 5.519532-5.070312l8-22.632812c.808594-2.292969.53125-4.824219-.753906-6.886719l-25.039063-40.226563 9.375-26.550781c.707031-2.003906.589844-4.203125-.328125-6.121094l-9.757812-20.40625c-1.90625-3.988281-6.683594-5.675781-10.671876-3.769531l-20.417968 9.761719c-1.910156.914062-3.382813 2.550781-4.085938 4.550781l-9.386718 26.582031-26.398438 9.210938v-49.761719c-.019531-8.324219-4.363281-16.042969-11.472656-20.375l13.074218-37.074219 2.933594-8.316406 18.402344-52 150.871094 53.253906zm0 0" fill="#000080" data-original="#000000"></path><path xmlns="http://www.w3.org/2000/svg" d="m397.054688 122.136719 5.324218-15.089844 13.71875 4.839844-5.324218 15.089843zm0 0" fill="#000080" data-original="#000000"></path><path xmlns="http://www.w3.org/2000/svg" d="m287.328125 83.398438 5.328125-15.085938 13.714844 4.84375-5.328125 15.085938zm0 0" fill="#000080" data-original="#000000"></path><path xmlns="http://www.w3.org/2000/svg" d="m369.621094 112.453125 5.328125-15.089844 13.714843 4.84375-5.328124 15.085938zm0 0" fill="#000080" data-original="#000000"></path><path xmlns="http://www.w3.org/2000/svg" d="m314.761719 93.085938 5.328125-15.085938 13.710937 4.84375-5.328125 15.085938zm0 0" fill="#000080" data-original="#000000"></path><path xmlns="http://www.w3.org/2000/svg" d="m342.191406 102.761719 5.328125-15.085938 13.714844 4.84375-5.328125 15.085938zm0 0" fill="#000080" data-original="#000000"></path><path xmlns="http://www.w3.org/2000/svg" d="m132.3125 160c-44.183594 0-80 35.816406-80 80s35.816406 80 80 80 80-35.816406 80-80c-.046875-44.160156-35.835938-79.949219-80-80zm57.769531 52.648438-10.914062-2.398438c-4.800781-1.058594-9.601563-1.898438-14.449219-2.625-.734375-4.847656-1.597656-9.671875-2.628906-14.449219l-2.402344-10.910156c13.316406 6.339844 24.050781 17.066406 30.394531 30.382813zm-121.769531 27.351562c.015625-3.269531.28125-6.535156.800781-9.765625l19.78125-4.402344c3.035157-.671875 6.089844-1.230469 9.152344-1.757812-.773437 10.601562-.773437 21.25 0 31.855469-3.0625-.527344-6.117187-1.089844-9.152344-1.761719l-19.78125-4.398438c-.519531-3.230469-.785156-6.496093-.800781-9.769531zm45.96875-18.023438c11.992188-1.070312 24.054688-1.070312 36.046875 0 1.074219 11.992188 1.074219 24.054688 0 36.046876-11.992187 1.074218-24.054687 1.074218-36.046875 0-1.074219-11.992188-1.074219-24.054688 0-36.046876zm52.261719 2.097657c3.066406.527343 6.121093 1.085937 9.152343 1.757812l19.785157 4.402344c1.109375 6.464844 1.109375 13.070313 0 19.535156l-19.785157 4.398438c-3.03125.671875-6.085937 1.234375-9.152343 1.769531.777343-10.609375.777343-21.257812 0-31.863281zm-24.46875-47.273438 4.398437 19.792969c.671875 3.03125 1.238282 6.085938 1.769532 9.152344-10.609376-.777344-21.257813-.777344-31.867188 0 .53125-3.066406 1.089844-6.121094 1.769531-9.152344l4.398438-19.792969c6.464843-1.097656 13.066406-1.097656 19.53125 0zm-37.121094 5.40625-2.402344 10.914063c-1.054687 4.800781-1.894531 9.601562-2.621093 14.449218-4.847657.726563-9.671876 1.597657-14.449219 2.621094l-10.914063 2.402344c6.351563-13.304688 17.078125-24.023438 30.386719-30.359375zm-30.402344 85.121094 10.914063 2.402344c4.800781 1.054687 9.597656 1.894531 14.449218 2.621093.726563 4.847657 1.597657 9.671876 2.621094 14.449219l2.402344 10.910157c-13.316406-6.332032-24.046875-17.050782-30.402344-30.359376zm48 35.824219-4.398437-19.792969c-.679688-3.023437-1.238282-6.085937-1.769532-9.144531 5.296876.386718 10.617188.648437 15.9375.648437 5.320313 0 10.625-.261719 15.929688-.648437-.53125 3.058594-1.097656 6.121094-1.769531 9.144531l-4.398438 19.792969c-6.464843 1.097656-13.066406 1.097656-19.53125 0zm37.121094-5.40625 2.402344-10.914063c1.0625-4.800781 1.894531-9.597656 2.628906-14.449219 4.839844-.726562 9.671875-1.597656 14.449219-2.621093l10.910156-2.402344c-6.339844 13.328125-17.074219 24.066406-30.398438 30.410156zm0 0" fill="#000080" data-original="#000000"></path><path xmlns="http://www.w3.org/2000/svg" d="m68.3125 384h128v16h-128zm0 0" fill="#000080" data-original="#000000"></path><path xmlns="http://www.w3.org/2000/svg" d="m84.3125 416h96v16h-96zm0 0" fill="#000080" data-original="#000000"></path><path xmlns="http://www.w3.org/2000/svg" d="m124.3125 352h16v16h-16zm0 0" fill="#000080" data-original="#000000"></path><path xmlns="http://www.w3.org/2000/svg" d="m92.3125 352h16v16h-16zm0 0" fill="#000080" data-original="#000000"></path><path xmlns="http://www.w3.org/2000/svg" d="m156.3125 352h16v16h-16zm0 0" fill="#000080" data-original="#000000"></path></g></symbol><symbol id="important_points" version="1.1" xmlns="http://www.w3.org/2000/svg" xmlns:xlink="http://www.w3.org/1999/xlink" x="0px" y="0px" viewBox="0 0 512 512" style="enable-background:new 0 0 512 512;" xml:space="preserve"><path style="fill:#FC495C;" d="M427.155,206l37.772-94.429c1.849-4.622,1.284-9.859-1.506-13.98C460.63,93.469,455.977,91,451,91
             H261c-8.284,0-15,6.716-15,15v135h-35c-8.284,0-15,6.716-15,15v50c0,8.284,6.716,15,15,15h240c4.978,0,9.63-2.469,12.421-6.591
             c2.791-4.121,3.355-9.358,1.506-13.98L427.155,206z"></path><path style="fill:#D12657;" d="M210.997,321c-1.932,0-3.881-0.373-5.737-1.142c-5.605-2.322-9.26-7.791-9.26-13.858v-50
             c0-8.284,6.716-15,15-15h50c6.067,0,11.537,3.654,13.858,9.26c2.321,5.605,1.038,12.057-3.252,16.347l-50,50
             C218.737,319.477,214.9,321,210.997,321z"></path><path style="fill:#FD6B82;" d="M261,41H61c-8.284,0-15,6.716-15,15v200c0,8.284,6.716,15,15,15h200c8.284,0,15-6.716,15-15V56
             C276,47.716,269.284,41,261,41z"></path><path style="fill:#A4B0BE;" d="M61,512c-8.284,0-15-6.716-15-15V15c0-8.284,6.716-15,15-15s15,6.716,15,15v482
             C76,505.284,69.284,512,61,512z"></path></symbol><symbol id="linkedin" enable-background="new 0 0 24 24" height="14" viewBox="0 0 24 24" width="14" xmlns="http://www.w3.org/2000/svg"><path d="m23.994 24v-.001h.006v-8.802c0-4.306-.927-7.623-5.961-7.623-2.42 0-4.044 1.328-4.707 2.587h-.07v-2.185h-4.773v16.023h4.97v-7.934c0-2.089.396-4.109 2.983-4.109 2.549 0 2.587 2.384 2.587 4.243v7.801z"></path><path d="m.396 7.977h4.976v16.023h-4.976z"></path><path d="m2.882 0c-1.591 0-2.882 1.291-2.882 2.882s1.291 2.909 2.882 2.909 2.882-1.318 2.882-2.909c-.001-1.591-1.292-2.882-2.882-2.882z"></path></symbol><symbol id="increase" xmlns="http://www.w3.org/2000/svg" height="10px" viewBox="0 0 469.33333 469.33333" width="10px" class="hovered-paths"><g><path d="m437.332031 192h-160v-160c0-17.664062-14.335937-32-32-32h-21.332031c-17.664062 0-32 14.335938-32 32v160h-160c-17.664062 0-32 14.335938-32 32v21.332031c0 17.664063 14.335938 32 32 32h160v160c0 17.664063 14.335938 32 32 32h21.332031c17.664063 0 32-14.335937 32-32v-160h160c17.664063 0 32-14.335937 32-32v-21.332031c0-17.664062-14.335937-32-32-32zm0 0" data-original="#000000" class="hovered-path active-path" fill="currentColor"></path></g></symbol><symbol id="loader" xmlns="http://www.w3.org/2000/svg" style="fill: #fff; height: 1em; width: 1em" viewBox="0 0 24 24"><g data-name="Layer 2"><g data-name="loader"><rect width="24" height="24" transform="rotate(180 12 12)" opacity="0"></rect><path d="M12 2a1 1 0 0 0-1 1v2a1 1 0 0 0 2 0V3a1 1 0 0 0-1-1z"></path><path d="M21 11h-2a1 1 0 0 0 0 2h2a1 1 0 0 0 0-2z"></path><path d="M6 12a1 1 0 0 0-1-1H3a1 1 0 0 0 0 2h2a1 1 0 0 0 1-1z"></path><path d="M6.22 5a1 1 0 0 0-1.39 1.47l1.44 1.39a1 1 0 0 0 .73.28 1 1 0 0 0 .72-.31 1 1 0 0 0 0-1.41z"></path><path d="M17 8.14a1 1 0 0 0 .69-.28l1.44-1.39A1 1 0 0 0 17.78 5l-1.44 1.42a1 1 0 0 0 0 1.41 1 1 0 0 0 .66.31z"></path><path d="M12 18a1 1 0 0 0-1 1v2a1 1 0 0 0 2 0v-2a1 1 0 0 0-1-1z"></path><path d="M17.73 16.14a1 1 0 0 0-1.39 1.44L17.78 19a1 1 0 0 0 .69.28 1 1 0 0 0 .72-.3 1 1 0 0 0 0-1.42z"></path><path d="M6.27 16.14l-1.44 1.39a1 1 0 0 0 0 1.42 1 1 0 0 0 .72.3 1 1 0 0 0 .67-.25l1.44-1.39a1 1 0 0 0-1.39-1.44z"></path></g></g></symbol><symbol id="instagram" version="1.1" xmlns="http://www.w3.org/2000/svg" xmlns:xlink="http://www.w3.org/1999/xlink" x="0px" y="0px" viewBox="0 0 512 512" style="enable-background:new 0 0 512 512;" xml:space="preserve" height="14" width="14"><g><g><path d="M352,0H160C71.648,0,0,71.648,0,160v192c0,88.352,71.648,160,160,160h192c88.352,0,160-71.648,160-160V160
                   C512,71.648,440.352,0,352,0z M464,352c0,61.76-50.24,112-112,112H160c-61.76,0-112-50.24-112-112V160C48,98.24,98.24,48,160,48
                   h192c61.76,0,112,50.24,112,112V352z"></path></g></g><g><g><path d="M256,128c-70.688,0-128,57.312-128,128s57.312,128,128,128s128-57.312,128-128S326.688,128,256,128z M256,336
                   c-44.096,0-80-35.904-80-80c0-44.128,35.904-80,80-80s80,35.872,80,80C336,300.096,300.096,336,256,336z"></path></g></g><g><g><circle cx="393.6" cy="118.4" r="17.056"></circle></g></g></symbol><symbol id="minimize" version="1.1" xmlns="http://www.w3.org/2000/svg" xmlns:xlink="http://www.w3.org/1999/xlink" x="0px" y="0px" width="1em" height="1em" viewBox="0 0 124 124" fill="currentColor" style="enable-background:new 0 0 124 124; width: 12px;" xml:space="preserve"><g><path d="M112,50H12C5.4,50,0,55.4,0,62c0,6.6,5.4,12,12,12h100c6.6,0,12-5.4,12-12C124,55.4,118.6,50,112,50z"></path></g></symbol><symbol id="phone" version="1.1" xmlns="http://www.w3.org/2000/svg" xmlns:xlink="http://www.w3.org/1999/xlink" height="10px" width="10px" x="0px" y="0px" viewBox="0 0 384 384" style="enable-background:new 0 0 384 384;" xml:space="preserve"><g><g><path d="M353.188,252.052c-23.51,0-46.594-3.677-68.469-10.906c-10.719-3.656-23.896-0.302-30.438,6.417l-43.177,32.594
             c-50.073-26.729-80.917-57.563-107.281-107.26l31.635-42.052c8.219-8.208,11.167-20.198,7.635-31.448
             c-7.26-21.99-10.948-45.063-10.948-68.583C132.146,13.823,118.323,0,101.333,0H30.813C13.823,0,0,13.823,0,30.813
             C0,225.563,158.438,384,353.188,384c16.99,0,30.813-13.823,30.813-30.813v-70.323C384,265.875,370.177,252.052,353.188,252.052z"></path></g></g></symbol><symbol id="question_circle_fill" class="bi bi-question-circle-fill" width="1em" height="1em" viewBox="0 0 16 16" fill="currentColor" xmlns="http://www.w3.org/2000/svg"><path fill-rule="evenodd" d="M16 8A8 8 0 110 8a8 8 0 0116 0zM6.57 6.033H5.25C5.22 4.147 6.68 3.5 8.006 3.5c1.397 0 2.673.73 2.673 2.24 0 1.08-.635 1.594-1.244 2.057-.737.559-1.01.768-1.01 1.486v.355H7.117l-.007-.463c-.038-.927.495-1.498 1.168-1.987.59-.444.965-.736.965-1.371 0-.825-.628-1.168-1.314-1.168-.901 0-1.358.603-1.358 1.384zm1.251 6.443c-.584 0-1.009-.394-1.009-.927 0-.552.425-.94 1.01-.94.609 0 1.028.388 1.028.94 0 .533-.42.927-1.029.927z" clip-rule="evenodd"></path></symbol><symbol id="my_booking_calender" xmlns="http://www.w3.org/2000/svg" viewBox="0 0 24 24" width="18px" height="18px" class="calendarSvg ng-tns-c112-1"><path d="M9 11H7v2h2v-2zm4 0h-2v2h2v-2zm4 0h-2v2h2v-2zm2-7h-1V2h-2v2H8V2H6v2H5c-1.11 0-1.99.9-1.99 2L3 20c0 1.1.89 2 2 2h14c1.1 0 2-.9 2-2V6c0-1.1-.9-2-2-2zm0 16H5V9h14v11z" class="ng-tns-c112-1"></path><path d="M0 0h24v24H0z" fill="none" class="ng-tns-c112-1"></path></symbol><symbol id="resent" xmlns="http://www.w3.org/2000/svg" viewBox="0 0 24 24" fill="currentColor" width="18px" height="18px"><path d="M12 6v3l4-4-4-4v3c-4.42 0-8 3.58-8 8 0 1.57.46 3.03 1.24 4.26L6.7 14.8c-.45-.83-.7-1.79-.7-2.8 0-3.31 2.69-6 6-6zm6.76 1.74L17.3 9.2c.44.84.7 1.79.7 2.8 0 3.31-2.69 6-6 6v-3l-4 4 4 4v-3c4.42 0 8-3.58 8-8 0-1.57-.46-3.03-1.24-4.26z"></path><path d="M0 0h24v24H0z" fill="none"></path></symbol><symbol id="question_mark" class="bi bi-question-circle-fill" width="1em" height="1em" viewBox="0 0 16 16" fill="currentColor" xmlns="http://www.w3.org/2000/svg"><path fill-rule="evenodd" d="M16 8A8 8 0 110 8a8 8 0 0116 0zM6.57 6.033H5.25C5.22 4.147 6.68 3.5 8.006 3.5c1.397 0 2.673.73 2.673 2.24 0 1.08-.635 1.594-1.244 2.057-.737.559-1.01.768-1.01 1.486v.355H7.117l-.007-.463c-.038-.927.495-1.498 1.168-1.987.59-.444.965-.736.965-1.371 0-.825-.628-1.168-1.314-1.168-.901 0-1.358.603-1.358 1.384zm1.251 6.443c-.584 0-1.009-.394-1.009-.927 0-.552.425-.94 1.01-.94.609 0 1.028.388 1.028.94 0 .533-.42.927-1.029.927z" clip-rule="evenodd"></path></symbol><symbol id="rupee" xmlns="http://www.w3.org/2000/svg" width="24" height="24" viewBox="0 0 24 24"><path d="M17,6V4H9.5H7H6v2h1h2.5c1.302,0,2.401,0.838,2.815,2H6v2h6.315c-0.414,1.162-1.514,2-2.815,2H6v2.414L11.586,20h2.828 l-6-6H9.5c2.414,0,4.435-1.721,4.898-4H17V8h-2.602c-0.151-0.744-0.481-1.416-0.924-2H17z"></path></symbol><symbol id="sim_cart" xmlns="http://www.w3.org/2000/svg" width="18px" height="18px" viewBox="0 0 19.059 18.283"><g transform="translate(1 1)"><path d="M13.551,30.775A.775.775,0,1,1,12.775,30,.775.775,0,0,1,13.551,30.775Z" transform="translate(-6.572 -15.268)" fill="none" stroke="#fff" stroke-linecap="round" stroke-linejoin="round" stroke-width="2"></path><path d="M30.051,30.775A.775.775,0,1,1,29.275,30,.775.775,0,0,1,30.051,30.775Z" transform="translate(-14.543 -15.268)" fill="none" stroke="#fff" stroke-linecap="round" stroke-linejoin="round" stroke-width="2"></path><path d="M1.5,1.5H4.6L6.68,11.882A1.551,1.551,0,0,0,8.23,13.131h7.537a1.551,1.551,0,0,0,1.551-1.248l1.241-6.506H5.377" transform="translate(-1.5 -1.5)" fill="none" stroke="#fff" stroke-linecap="round" stroke-linejoin="round" stroke-width="2"></path></g></symbol><symbol id="star" height="15px" viewBox="0 -10 511.98685 511" width="15px" xmlns="http://www.w3.org/2000/svg"><path d="m510.652344 185.902344c-3.351563-10.367188-12.546875-17.730469-23.425782-18.710938l-147.773437-13.417968-58.433594-136.769532c-4.308593-10.023437-14.121093-16.511718-25.023437-16.511718s-20.714844 6.488281-25.023438 16.535156l-58.433594 136.746094-147.796874 13.417968c-10.859376 1.003906-20.03125 8.34375-23.402344 18.710938-3.371094 10.367187-.257813 21.738281 7.957031 28.90625l111.699219 97.960937-32.9375 145.089844c-2.410156 10.667969 1.730468 21.695313 10.582031 28.09375 4.757813 3.4375 10.324219 5.1875 15.9375 5.1875 4.839844 0 9.640625-1.304687 13.949219-3.882813l127.46875-76.183593 127.421875 76.183593c9.324219 5.609376 21.078125 5.097657 29.910156-1.304687 8.855469-6.417969 12.992187-17.449219 10.582031-28.09375l-32.9375-145.089844 111.699219-97.941406c8.214844-7.1875 11.351563-18.539063 7.980469-28.925781zm0 0" fill="currentColor"></path></symbol><symbol id="twitter" version="1.1" xmlns="http://www.w3.org/2000/svg" height="14" width="14" xmlns:xlink="http://www.w3.org/1999/xlink" x="0px" y="0px" viewBox="0 0 512 512" style="enable-background:new 0 0 512 512;" xml:space="preserve"><g><g><path d="M512,97.248c-19.04,8.352-39.328,13.888-60.48,16.576c21.76-12.992,38.368-33.408,46.176-58.016
                      c-20.288,12.096-42.688,20.64-66.56,25.408C411.872,60.704,384.416,48,354.464,48c-58.112,0-104.896,47.168-104.896,104.992
                      c0,8.32,0.704,16.32,2.432,23.936c-87.264-4.256-164.48-46.08-216.352-109.792c-9.056,15.712-14.368,33.696-14.368,53.056
                      c0,36.352,18.72,68.576,46.624,87.232c-16.864-0.32-33.408-5.216-47.424-12.928c0,0.32,0,0.736,0,1.152
                      c0,51.008,36.384,93.376,84.096,103.136c-8.544,2.336-17.856,3.456-27.52,3.456c-6.72,0-13.504-0.384-19.872-1.792
                      c13.6,41.568,52.192,72.128,98.08,73.12c-35.712,27.936-81.056,44.768-130.144,44.768c-8.608,0-16.864-0.384-25.12-1.44
                      C46.496,446.88,101.6,464,161.024,464c193.152,0,298.752-160,298.752-298.688c0-4.64-0.16-9.12-0.384-13.568
                      C480.224,136.96,497.728,118.496,512,97.248z"></path></g></g></symbol><symbol id="user" enable-background="new 0 0 512 512" height="1em" viewBox="0 0 512 512" width="1em" xmlns="http://www.w3.org/2000/svg" xmlns:xlink="http://www.w3.org/1999/xlink"><linearGradient gradientUnits="userSpaceOnUse" x1="256" x2="256" y1="512" y2="0"><stop offset="0" stop-color="#5558ff"></stop><stop offset="1" stop-color="#00c0ff"></stop></linearGradient><linearGradient gradientUnits="userSpaceOnUse" x1="256" x2="256" y1="452" y2="91"><stop offset="0" stop-color="#addcff"></stop><stop offset="0.5028" stop-color="#eaf6ff"></stop><stop offset="1" stop-color="#eaf6ff"></stop></linearGradient><g><g><g><circle cx="256" cy="256" fill="url(#SVGID_1_)" r="256"></circle></g></g><g><g><path d="m331 166c0-41.355-33.645-75-75-75s-75 33.645-75 75 33.645 75 75 75 75-33.645 75-75zm-75 75c-74.439 0-135 60.561-135 135v14.058c0 4.264 1.814 8.326 4.99 11.171 36.538 32.74 82.71 50.771 130.01 50.771 47.301 0 93.473-18.031 130.01-50.771 3.176-2.845 4.99-6.908 4.99-11.171v-14.058c0-74.439-60.561-135-135-135z" fill="url(#SVGID_2_)"></path></g></g></g></symbol><symbol id="unknown" viewBox="0 0 600 185" fill="none" xmlns="http://www.w3.org/2000/svg" class="logo"><path fill-rule="evenodd" clip-rule="evenodd" d="M486.5 2.89999H461.3V145.7H486.5V2.89999ZM293.4 125.6C303.2 125.6 311 121.5 315.3 115.8L335.6 127.5C326.4 140.8 311.8 148.4 293 148.4C260.2 148.4 239.4 126 239.4 96.9C239.4 67.8 260.3 45.4 291 45.4C319.9 45.4 340.5 68.2 340.5 96.9C340.5 100.6 340.1 103.9 339.5 107.2H265.8C269.4 120.1 280.1 125.6 293.4 125.6ZM315.3 87.8C312.2 73.8 301.6 68.1 291.1 68.1C277.6 68.1 268.4 75.3 265.5 87.8H315.3ZM444.6 85.8V145.7H419.4V88.9C419.4 75.6 411.4 68.8 400 68.8C387.7 68.8 378.5 76 378.5 93V145.7H353.3V48.2H378.5V59.1C384.4 50.3 394.5 45.4 407.6 45.4C428.3 45.4 444.6 59.9 444.6 85.8ZM600 48.1L564.4 145.6C554.2 173.7 537.6 186 512.8 184.6V161.2C526.7 161.4 533.7 155.5 538.4 142.5L498.3 48.1H525.9L551.3 113.7L573 48.1H600ZM231.8 48.2V69.8L192.8 122.1H231.9V145.7H160.5V126.6L200.4 71.8H160.5V48.2H231.8Z" class="fill"></path><path d="M52.3999 181.8H57.4999C64.7999 181.8 70.7 175.9 70.7 168.6V145.7H39.2V168.6C39.2 175.9 45.0999 181.8 52.3999 181.8Z" class="fill"></path><path d="M55 0C24.6 0 0 21.3 0 47.7V113.1L78.7 4.7C71.5 1.7 63.5 0 55 0Z" fill="#FFDD00"></path><path d="M39.2 145.7H97.2C104.2 145.7 109.9 140 109.9 132.9V48.3L39.2 145.7Z" fill="#66FF33"></path><path d="M110 47.7C110 28.7 97.2 12.4 78.7 4.7L0 113V132.8C0 139.9 5.7 145.6 12.7 145.6H39.2L110 48.2V47.7Z" fill="#FF0096"></path></symbol><symbol id="user_profile" width="25" height="25" viewBox="0 0 25 25" fill="none" xmlns="http://www.w3.org/2000/svg"><path d="M12.5012 23.6003L17.4538 22.3496C20.2807 20.0022 22.0813 16.4616 22.0813 12.5C22.0813 6.38949 17.7985 1.27928 12.0709 0.00726318C5.36606 0.233386 0 5.74002 0 12.5C0 15.9722 1.41602 19.1136 3.70176 21.3787L12.5012 23.6003Z" fill="#CBE2FF"></path><path d="M21.822 12.5C21.822 16.5974 19.8502 20.2339 16.8041 22.5136L21.2979 21.3788C23.5837 19.1137 25 15.9724 25 12.5C25 5.59644 19.4036 0 12.5 0C11.9617 0 11.4313 0.034082 10.911 0.100098C17.0643 0.880762 21.822 6.13477 21.822 12.5Z" fill="#BED8FB"></path><path d="M15.6065 4.73399C15.6065 4.09556 15.089 3.57803 14.4505 3.57803H10.467C8.99775 3.57803 7.80664 4.76915 7.80664 6.23843V9.19219H17.1918V6.28033C17.1918 5.6419 16.6743 5.12437 16.0359 5.12437H15.9969C15.7813 5.12437 15.6065 4.94962 15.6065 4.73399V4.73399Z" fill="#365E7D"></path><path d="M16.0359 5.12436H15.9969C15.7813 5.12436 15.6065 4.94955 15.6065 4.73393C15.6065 4.0955 15.089 3.57797 14.4505 3.57797H14.0138V9.19213H17.1918V6.28027C17.1918 5.64194 16.6743 5.12436 16.0359 5.12436V5.12436Z" fill="#2B4D66"></path><path d="M20.7542 18.1814C20.4486 17.8795 20.0705 17.6461 19.6414 17.5103L16.2287 16.4298L12.5008 16.2988L8.77131 16.4298L5.35867 17.5103C4.20418 17.8758 3.41956 18.9472 3.41956 20.1582V21.0905C5.60652 23.4014 8.66619 24.878 12.0711 24.9928C15.8859 24.1455 19.0598 21.5956 20.7542 18.1814V18.1814Z" fill="#4A80AA"></path><path d="M21.5805 21.0904V20.1581C21.5805 19.3019 21.1879 18.5158 20.55 17.9993C18.7379 21.6919 15.1583 24.36 10.9139 24.8995C11.4262 24.9644 11.948 24.999 12.4777 25C12.9866 24.9992 13.4888 24.9697 13.9828 24.9129C16.9628 24.5608 19.6217 23.1603 21.5805 21.0904Z" fill="#407093"></path><path d="M12.783 24.8129C13.5393 23.3114 15.5087 19.0479 14.9472 16.3847L12.5008 15.4326L10.0522 16.3848C9.47327 19.1301 11.5839 23.576 12.2827 24.9438C12.4508 24.9035 12.6176 24.8598 12.783 24.8129V24.8129Z" fill="#E4F6FF"></path><path d="M14.0721 23.6225L13.0803 19.7203H11.9198L10.9303 23.6119L12.1538 24.974C12.4644 24.9029 12.7707 24.8204 13.0723 24.7271L14.0721 23.6225Z" fill="#E28086"></path><path d="M12.173 24.9954C12.2743 24.998 12.3758 24.9998 12.4777 25C12.5956 24.9998 12.7131 24.9978 12.8303 24.9945L13.4606 24.2982C12.9645 24.4723 12.4542 24.6159 11.9318 24.7269L12.173 24.9954Z" fill="#DD636E"></path><path d="M14.5886 16.0246V13.8241H10.4099V16.0246C10.4099 17.1785 12.4992 18.4389 12.4992 18.4389C12.4992 18.4389 14.5886 17.1785 14.5886 16.0246Z" fill="#FFDDCE"></path><path d="M17.1918 8.8046H16.3931C15.9488 8.8046 15.5887 8.44449 15.5887 8.00025V7.56007C15.5887 6.98141 15.0226 6.57228 14.4731 6.75387C13.1917 7.1774 11.8082 7.1775 10.5267 6.75416L10.5252 6.75367C9.97578 6.57218 9.40972 6.98131 9.40972 7.55992V8.0003C9.40972 8.44454 9.04961 8.80465 8.60537 8.80465H7.80664V10.12C7.80664 10.4561 8.0791 10.7286 8.41523 10.7286C8.52129 10.7286 8.60757 10.8116 8.61426 10.9175C8.74258 12.9521 10.4324 14.5627 12.4993 14.5627C14.5662 14.5627 16.256 12.9521 16.3843 10.9175C16.391 10.8117 16.4772 10.7286 16.5833 10.7286C16.9194 10.7286 17.1919 10.4561 17.1919 10.12V8.8046H17.1918Z" fill="#FFDDCE"></path><path d="M16.3931 8.8046C15.9488 8.8046 15.5887 8.44449 15.5887 8.00025V7.56007C15.5887 6.9814 15.0226 6.57227 14.4732 6.75386C14.3214 6.80401 14.1681 6.84776 14.0138 6.88604V11.2304C13.9924 12.6439 13.2179 13.874 12.0741 14.5389C12.2138 14.5541 12.3555 14.5626 12.4992 14.5626C14.5661 14.5626 16.2559 12.952 16.3842 10.9174C16.3909 10.8116 16.4772 10.7285 16.5833 10.7285C16.9193 10.7285 17.1919 10.456 17.1919 10.1199V8.80455H16.3931V8.8046Z" fill="#FFCBBE"></path><path d="M10.4099 15.4326L8.7713 16.764L10.4897 18.8887C10.6987 19.0922 11.0277 19.1047 11.2516 18.9177L12.5439 17.8382L10.4099 15.4326Z" fill="#F4FBFF"></path><path d="M14.5894 15.4326L12.5439 17.8382L13.7584 18.8767C13.9809 19.0669 14.3115 19.0574 14.5226 18.8546L16.2287 16.764L14.5894 15.4326Z" fill="#F4FBFF"></path><path d="M10.4099 15.4326L8.0048 16.6142C7.8217 16.7042 7.74816 16.9269 7.84167 17.1082L8.31286 18.0218C8.43498 18.2585 8.38991 18.547 8.20144 18.7352C8.10441 18.832 7.99934 18.9369 7.90827 19.0278C7.74528 19.1905 7.68674 19.4309 7.75852 19.6497C8.32741 21.3839 11.0654 24.0358 12.1016 24.9953C12.1713 24.9972 12.2411 24.9984 12.3111 24.9992C11.5596 23.5376 8.89689 17.9848 10.4099 15.4326V15.4326Z" fill="#365E7D"></path><path d="M16.7978 18.7351C16.6093 18.5469 16.5643 18.2584 16.6864 18.0217L17.1576 17.1082C17.2511 16.9269 17.1775 16.7041 16.9944 16.6142L14.5893 15.4326C16.1019 17.9841 13.4411 23.5346 12.6888 24.998C12.7595 24.9968 12.8301 24.9951 12.9005 24.9927C13.9388 24.0311 16.6724 21.3824 17.2407 19.6498C17.3125 19.4309 17.2539 19.1905 17.091 19.0278C16.9999 18.9369 16.8948 18.8319 16.7978 18.7351V18.7351Z" fill="#365E7D"></path><path d="M12.5439 17.8382L11.2714 18.9009L11.9197 19.7203H13.0802L13.7286 18.8526L12.5439 17.8382Z" fill="#DD636E"></path></symbol><symbol id="visa2fly_white_icon" xmlns="http://www.w3.org/2000/svg" width="100px" height="60px" viewBox="0 0 1458.7 211.12"><path data-name="Path 2" d="M226.2-203,139.2,0H82.65L-4.06-203H58L113.1-70.76,169.36-203Zm11.89,0h57.42V0H238.09ZM407.74,4.06a187.674,187.674,0,0,1-47.85-6.09q-23.2-6.09-37.7-16.24l18.85-42.34a121.975,121.975,0,0,0,31.61,14.5,120.331,120.331,0,0,0,35.38,5.51q33.06,0,33.06-16.53,0-8.7-9.425-12.905t-30.3-8.845a289.25,289.25,0,0,1-38.28-10.585,64.431,64.431,0,0,1-26.39-18.125q-11.02-12.47-11.02-33.64a58.237,58.237,0,0,1,10.15-33.5q10.15-14.935,30.3-23.635t49.445-8.7a174.419,174.419,0,0,1,39.44,4.5,120.778,120.778,0,0,1,34.22,13.195l-17.69,42.63q-29-15.66-56.26-15.66-17.11,0-24.94,5.075t-7.83,13.2q0,8.12,9.28,12.18t29.87,8.41q23.2,4.93,38.425,10.585a66.353,66.353,0,0,1,26.39,17.98Q497.64-82.65,497.64-61.48a57.1,57.1,0,0,1-10.15,33.06Q477.34-13.63,457.04-4.785T407.74,4.06Zm252.3-43.5H574.2L558.25,0H499.67l89.61-203h56.55L735.73,0H675.99ZM643.22-81.78l-26.1-64.96-26.1,64.96Zm255.2,36.25V0H740.37V-35.96l75.98-71.05q11.02-10.44,14.79-17.835a32.584,32.584,0,0,0,3.77-14.935q0-9.86-6.67-15.37t-19.43-5.51a43.033,43.033,0,0,0-20.735,5.075A41.634,41.634,0,0,0,772.56-140.94l-42.63-23.78a83.42,83.42,0,0,1,33.35-31.03q21.46-11.31,50.75-11.31,23.2,0,41.035,7.54t27.84,21.605q10,14.065,10.005,32.625a70.5,70.5,0,0,1-7.1,31.175Q878.7-99.47,858.4-80.91L820.12-45.53Zm84.68-113.1v44.66h89.61V-69.6H983.1V0H925.68V-203h159.21v44.37ZM1111.86-203h57.42V-45.53h96.86V0H1111.86ZM1376.92-72.79V0H1319.5V-73.66L1242.07-203h60.61l48.14,80.62L1398.96-203h55.68Z" transform="translate(4.06 207.06)" fill="#fff"></path></symbol><symbol id="why_choose_us_1" xmlns="http://www.w3.org/2000/svg" xmlns:xlink="http://www.w3.org/1999/xlink" xmlns:svgjs="http://svgjs.com/svgjs" version="1.1" width="40" height="40" x="0" y="0" viewBox="0 0 512 512" style="enable-background: new 0 0 512 512" xml:space="preserve"><g><path xmlns="http://www.w3.org/2000/svg" d="M389,156.21a7.994,7.994,0,0,0,10.928-2.928l16-27.713a8,8,0,1,0-13.856-8l-16,27.713A8,8,0,0,0,389,156.21Z" fill="#000080" data-original="#000000"></path><path xmlns="http://www.w3.org/2000/svg" d="M374.356,101.565a8,8,0,1,0,13.852,8.008l8.012-13.858a8,8,0,0,0-13.852-8.008Z" fill="#000080" data-original="#000000"></path><path xmlns="http://www.w3.org/2000/svg" d="M416.708,172.21a7.994,7.994,0,0,0,10.928-2.928l8-13.856a8,8,0,0,0-13.856-8l-8,13.856A8,8,0,0,0,416.708,172.21Z" fill="#000080" data-original="#000000"></path><path xmlns="http://www.w3.org/2000/svg" d="M369.282,126.354a8,8,0,1,0,2.928,10.928A8,8,0,0,0,369.282,126.354Z" fill="#000080" data-original="#000000"></path><circle xmlns="http://www.w3.org/2000/svg" cx="444.708" cy="123.713" r="8" transform="translate(164.438 490.481) rotate(-68.16)" fill="#000080" data-original="#000000"></circle><path xmlns="http://www.w3.org/2000/svg" d="M200,80h0a8,8,0,0,0,8-8L208.01,56a8,8,0,0,0-8-8.005h0a8,8,0,0,0-8,8L192,72A8,8,0,0,0,200,80Z" fill="#000080" data-original="#000000"></path><circle xmlns="http://www.w3.org/2000/svg" cx="264" cy="56" r="8" fill="#000080" data-original="#000000"></circle><path xmlns="http://www.w3.org/2000/svg" d="M24,496H328a40.045,40.045,0,0,0,40-40V336.573L495.349,116a8,8,0,0,0-2.928-10.928L340,17.072A8,8,0,0,0,329.072,20L304,63.426V24a8,8,0,0,0-8-8H120a8,8,0,0,0-8,8V96H24a8,8,0,0,0-8,8V488A8,8,0,0,0,24,496ZM336,264l27.923-48.363,13.856,8L336,296Zm0,64,59.636-103.291a8,8,0,0,0-2.928-10.929l-27.713-16a8,8,0,0,0-10.928,2.929L336,232V200l4.21-7.291A7.966,7.966,0,0,0,336,181.19V162.564l85.492,49.359L336,360Zm16,128a24.027,24.027,0,0,1-24,24h-.022A39.788,39.788,0,0,0,336,456V392l16-27.713Zm77.492-257.934L336,144.089V136l44.5-77.072,97,56ZM338.928,34.928l27.713,16-36.813,63.764a40.082,40.082,0,0,0-26.55-18.017ZM288,91.139,285.193,96H272V88a8,8,0,0,0-16,0v8H240V72a8,8,0,0,0-16,0V96H176V32H288ZM128,32h32V96H128ZM32,112H296a24.027,24.027,0,0,1,24,24V456a24.027,24.027,0,0,1-24,24H32Z" fill="#000080" data-original="#000000"></path><path xmlns="http://www.w3.org/2000/svg" d="M232,400H120a8,8,0,0,0,0,16H232a8,8,0,0,0,0-16Z" fill="#000080" data-original="#000000"></path><path xmlns="http://www.w3.org/2000/svg" d="M256,144H96a8,8,0,0,0,0,16H256a8,8,0,0,0,0-16Z" fill="#000080" data-original="#000000"></path><path xmlns="http://www.w3.org/2000/svg" d="M176,192a88,88,0,1,0,88,88A88.1,88.1,0,0,0,176,192Zm8,63.794a154.238,154.238,0,0,0,26.422-3.486A71.611,71.611,0,0,1,215.536,272H184Zm0-16.016v-19.63a72.5,72.5,0,0,1,18.149,17.5A141.864,141.864,0,0,1,184,239.778Zm-16-19.63v19.63a141.864,141.864,0,0,1-18.149-2.131A72.5,72.5,0,0,1,168,220.148Zm0,35.646V272H136.464a71.611,71.611,0,0,1,5.114-19.692A154.238,154.238,0,0,0,168,255.794ZM120.371,272H104.455a71.5,71.5,0,0,1,10-29.338,96.738,96.738,0,0,0,11.7,5.146A87.426,87.426,0,0,0,120.371,272Zm0,16a87.426,87.426,0,0,0,5.784,24.192,96.738,96.738,0,0,0-11.7,5.146,71.5,71.5,0,0,1-10-29.338Zm16.093,0H168v16.206a154.238,154.238,0,0,0-26.422,3.486A71.611,71.611,0,0,1,136.464,288ZM168,320.222v19.63a72.5,72.5,0,0,1-18.149-17.5A141.864,141.864,0,0,1,168,320.222Zm16,19.63v-19.63a141.864,141.864,0,0,1,18.149,2.131A72.5,72.5,0,0,1,184,339.852Zm0-35.646V288h31.536a71.611,71.611,0,0,1-5.114,19.692A154.238,154.238,0,0,0,184,304.206ZM231.629,288h15.916a71.5,71.5,0,0,1-10,29.338,96.738,96.738,0,0,0-11.7-5.146A87.426,87.426,0,0,0,231.629,288Zm0-16a87.426,87.426,0,0,0-5.784-24.192,96.738,96.738,0,0,0,11.7-5.146,71.5,71.5,0,0,1,10,29.338Zm-4.112-42.228a86.048,86.048,0,0,1-8.946,3.615,88.844,88.844,0,0,0-18.7-21.3A72.148,72.148,0,0,1,227.517,229.772Zm-75.389-17.687a88.844,88.844,0,0,0-18.7,21.3,86.048,86.048,0,0,1-8.946-3.615A72.148,72.148,0,0,1,152.128,212.085ZM124.483,330.228a86.048,86.048,0,0,1,8.946-3.615,88.844,88.844,0,0,0,18.7,21.3A72.148,72.148,0,0,1,124.483,330.228Zm75.389,17.687a88.844,88.844,0,0,0,18.7-21.3,86.048,86.048,0,0,1,8.946,3.615A72.148,72.148,0,0,1,199.872,347.915Z" fill="#000080" data-original="#000000"></path><path xmlns="http://www.w3.org/2000/svg" d="M192,432H160a8,8,0,0,0,0,16h32a8,8,0,0,0,0-16Z" fill="#000080" data-original="#000000"></path></g></symbol><symbol id="why_choose_us_2" xmlns="http://www.w3.org/2000/svg" xmlns:xlink="http://www.w3.org/1999/xlink" xmlns:svgjs="http://svgjs.com/svgjs" version="1.1" width="40" height="40" x="0" y="0" viewBox="0 0 512 512" style="enable-background: new 0 0 512 512" xml:space="preserve"><g><g xmlns="http://www.w3.org/2000/svg"><path d="m204.328 340.608c.896-1.44 1.616-2.984 2.192-4.608h13.536c15.416 0 27.944-12.528 27.944-27.936v-36.464c23.568 15.76 51.392 24.4 80 24.4 79.4 0 144-64.6 144-144s-64.6-144-144-144c-68.752 0-127.672 49.032-141.048 115.488-7.608-2.232-15.624-3.488-23.944-3.488h-22.016c-46.864 0-84.992 38.128-84.992 84.992 0 10.936 2.28 21.864 6.4 32-3.968 5.336-6.4 11.864-6.4 19.008 0 17.648 14.352 32 32 32h.72c2.728 16.136 13.488 29.552 28.048 35.952l-3.272 13.064c-61.44 11.96-105.496 65.056-105.496 128.208v38.776h288v-38.776c0-58.288-37.576-107.888-91.672-124.616zm-13.344 101.96-20.416 6.808 17.008-27.216zm-48.88-58.136-15.688 23.536-6.696-10.704-5.488-43.952c.848-.184 1.704-.344 2.56-.512zm9.896 13.992 16.288 24.432-16.288 26.048-16.288-26.056zm40-70.424c0 4.416-3.584 8-8 8h-16c-4.416 0-8-3.584-8-8s3.584-8 8-8h16c4.416 0 8 3.584 8 8zm-4.784 24.792c.856.168 1.712.328 2.56.512l-5.488 43.952-6.696 10.704-15.688-23.536zm-84.28 39.208h-15.88l-3.432-27.432c4.8-2.6 9.824-4.848 15.04-6.768zm13.48 30.16 17.008 27.216-20.408-6.808zm88.92-64.368c5.216 1.92 10.24 4.168 15.04 6.768l-3.44 27.44h-15.88zm14.728-37.792h-13.536c-.904-2.528-2.208-4.832-3.856-6.888 6.608-6.92 10.976-15.64 12.576-25.112h.752c5.856 0 11.272-1.696 16-4.448v24.512c0 6.584-5.352 11.936-11.936 11.936zm-4.064-80c8.824 0 16 7.176 16 16s-7.176 16-16 16zm16.408-96c1.704-20.464 9.808-39.104 22.36-53.928l11.008 11.008 11.312-11.312-11.008-11.008c14.816-12.544 33.456-20.656 53.92-22.352v15.592h16v-15.592c20.464 1.704 39.104 9.808 53.928 22.36l-11.008 11.008 11.312 11.312 11.008-11.008c12.552 14.816 20.656 33.464 22.36 53.928h-15.6v16h15.592c-1.704 20.464-9.808 39.104-22.36 53.928l-11.008-11.008-11.312 11.312 11.008 11.008c-14.816 12.552-33.464 20.656-53.928 22.36v-15.608h-16v15.496c-20.128-1.664-38.808-9.496-53.896-22.288l10.976-10.976-11.312-11.312-11.048 11.048c-2.416-2.864-4.64-5.912-6.736-9.08-.024-16.488-4.832-31.84-13.016-44.88h13.04v-16h-15.592zm95.592-120c70.576 0 128 57.424 128 128s-57.424 128-128 128c-29.328 0-57.744-10.176-80.464-28.576-.776-5.36-2.84-10.272-5.936-14.432 1.312-3.232 2.432-6.52 3.336-9.896 21.048 23.368 50.92 36.904 83.064 36.904 61.76 0 112-50.24 112-112s-50.24-112-112-112c-57.44 0-104.856 43.48-111.216 99.24-4.528-3.712-9.464-6.92-14.688-9.64 10.704-60.56 63.776-105.6 125.904-105.6zm-256 232c0-8.824 7.176-16 16-16v32c-8.824 0-16-7.176-16-16zm21.472-47.592-5.472 1.824v13.768c-4.424 0-8.64.904-12.48 2.536-2.28-6.944-3.52-14.248-3.52-21.544 0-38.04 30.952-68.992 68.992-68.992h22.016c38.04 0 68.992 30.952 68.992 68.992 0 7.288-1.24 14.592-3.52 21.544-3.84-1.632-8.056-2.536-12.48-2.536v-16h-16c-20.592 0-40.448-5.552-57.904-16.128l8.304-11.072-12.8-9.6-8.824 11.76c-8.944 11.928-21.152 20.728-35.304 25.448zm10.528 71.592v-58.432c10.184-4.144 19.32-10.208 27.256-17.688 20.576 13.136 44.176 20.12 68.744 20.12v56c0 9.504-4.216 18.408-11.408 24.464-1.488-.288-3.016-.464-4.592-.464h-16c-7.064 0-13.36 3.128-17.76 8h-14.24c-17.648 0-32-14.352-32-32zm32 48h8c0 13.032 10.448 23.616 23.4 23.936l-15.4 19.256-23.28-29.104 3.568-14.28c1.232.096 2.456.192 3.712.192zm-112 137.224c0-36.968 17.264-69.928 44.72-90.944l4.216 33.72h29.616l-7.576 45.432 49.024 16.328v18.24h-72v-48h-16v48h-32zm256 22.776h-32v-48h-16v48h-72v-18.24l49.016-16.336-7.576-45.424h29.616l4.216-33.72c27.464 21.016 44.728 53.976 44.728 90.944z" fill="#000080" data-original="#000000"></path><circle cx="128" cy="240" r="8" fill="#000080" data-original="#000000"></circle><circle cx="176" cy="240" r="8" fill="#000080" data-original="#000000"></circle><path d="m184.968 282.344 4.688-4.688-11.312-11.312-4.688 4.688c-5.704 5.704-13.592 8.968-21.656 8.968s-15.952-3.264-21.656-8.968l-4.688-4.688-11.312 11.312 4.688 4.688c8.68 8.68 20.696 13.656 32.968 13.656s24.288-4.976 32.968-13.656z" fill="#000080" data-original="#000000"></path><path d="m391.888 424.004v-16.004c-1.168.016-29.496.016-45.36 0l37.912-44.224c4.88-5.68 7.56-12.936 7.56-20.416 0-17.288-14.072-31.36-31.36-31.36h-1.28c-17.288 0-31.36 14.072-31.36 31.36v8.64h16v-8.64c0-8.472 6.888-15.36 15.36-15.36h1.28c8.472 0 15.36 6.888 15.36 15.36 0 3.664-1.312 7.216-3.696 10l-44.304 51.68v18.96z" fill="#000080" data-original="#000000"></path><path d="m464 424v-16h16v-16h-16v-80h-20.712l-43.288 77.928v18.072h48v16zm-46.848-32 30.848-55.52v55.52z" fill="#000080" data-original="#000000"></path><path d="m352 440c-13.232 0-24 10.768-24 24s10.768 24 24 24 24-10.768 24-24-10.768-24-24-24zm0 32c-4.416 0-8-3.584-8-8s3.584-8 8-8 8 3.584 8 8-3.584 8-8 8z" fill="#000080" data-original="#000000"></path><path d="m416 440c-13.232 0-24 10.768-24 24s10.768 24 24 24 24-10.768 24-24-10.768-24-24-24zm0 32c-4.416 0-8-3.584-8-8s3.584-8 8-8 8 3.584 8 8-3.584 8-8 8z" fill="#000080" data-original="#000000"></path><path d="m480 440c-13.232 0-24 10.768-24 24s10.768 24 24 24 24-10.768 24-24-10.768-24-24-24zm0 32c-4.416 0-8-3.584-8-8s3.584-8 8-8 8 3.584 8 8-3.584 8-8 8z" fill="#000080" data-original="#000000"></path><path d="m328 176c10.416 0 19.216-6.712 22.528-16h25.472v-16h-25.472c-2.416-6.776-7.752-12.112-14.528-14.528v-41.472h-16v41.472c-9.288 3.312-16 12.112-16 22.528 0 13.232 10.768 24 24 24zm0-32c4.416 0 8 3.592 8 8s-3.584 8-8 8-8-3.592-8-8 3.584-8 8-8z" fill="#000080" data-original="#000000"></path></g><g xmlns="http://www.w3.org/2000/svg" fill="none"><path d="0" fill="0"></path><path d="0" fill="0"></path></g></g></symbol><symbol id="why_choose_us_4" xmlns="http://www.w3.org/2000/svg" xmlns:xlink="http://www.w3.org/1999/xlink" xmlns:svgjs="http://svgjs.com/svgjs" version="1.1" width="40" height="40" x="0" y="0" viewBox="0 0 512 512" style="enable-background: new 0 0 512 512" xml:space="preserve"><g><path xmlns="http://www.w3.org/2000/svg" d="m256 196.796875c-33.789062 0-61.28125 27.492187-61.28125 61.28125v24.101563h-6.3125c-7.820312 0-14.179688 6.359374-14.179688 14.179687v96.6875c0 7.816406 6.359376 14.175781 14.179688 14.175781h135.1875c7.816406 0 14.179688-6.359375 14.179688-14.175781v-96.6875c0-7.816406-6.363282-14.179687-14.179688-14.179687h-6.3125v-24.101563c0-33.789063-27.492188-61.28125-61.28125-61.28125zm-46.28125 61.28125c0-25.519531 20.761719-46.28125 46.28125-46.28125s46.28125 20.761719 46.28125 46.28125v24.101563h-92.5625zm113.054688 39.101563v95.042968h-133.546876v-95.042968zm0 0" fill="#000080" data-original="#000000"></path><path xmlns="http://www.w3.org/2000/svg" d="m221.128906 366.960938c4.140625 0 7.5-3.355469 7.5-7.5v-23.015626c0-4.144531-3.359375-7.5-7.5-7.5-4.144531 0-7.5 3.355469-7.5 7.5v23.015626c0 4.144531 3.355469 7.5 7.5 7.5zm0 0" fill="#000080" data-original="#000000"></path><path xmlns="http://www.w3.org/2000/svg" d="m256 366.960938c4.140625 0 7.5-3.355469 7.5-7.5v-23.015626c0-4.144531-3.359375-7.5-7.5-7.5s-7.5 3.355469-7.5 7.5v23.015626c0 4.144531 3.359375 7.5 7.5 7.5zm0 0" fill="#000080" data-original="#000000"></path><path xmlns="http://www.w3.org/2000/svg" d="m290.871094 366.960938c4.144531 0 7.5-3.355469 7.5-7.5v-23.015626c0-4.144531-3.355469-7.5-7.5-7.5-4.140625 0-7.5 3.355469-7.5 7.5v23.015626c0 4.144531 3.359375 7.5 7.5 7.5zm0 0" fill="#000080" data-original="#000000"></path><path xmlns="http://www.w3.org/2000/svg" d="m504.5 376.589844c4.140625 0 7.5-3.359375 7.5-7.5v-202.589844c0-11.648438-9.476562-21.125-21.125-21.125h-1.390625v-71.195312c0-14.007813-11.398437-25.402344-25.40625-25.402344h-199.253906c-3.210938 0-6.296875-1.519532-8.25-4.066406l-26.714844-34.777344c-4.773437-6.21875-12.304687-9.933594-20.144531-9.933594h-161.792969c-14.007813 0-25.40625 11.394531-25.40625 25.402344v40.929687c0 4.140625 3.359375 7.5 7.5 7.5 4.144531 0 7.5-3.359375 7.5-7.5v-40.929687c0-5.738282 4.667969-10.402344 10.40625-10.402344h161.792969c3.210937 0 6.292968 1.519531 8.25 4.066406l26.710937 34.777344c4.773438 6.21875 12.308594 9.933594 20.148438 9.933594h199.253906c5.738281 0 10.40625 4.664062 10.40625 10.402344v71.195312h-17.746094v-44.644531c0-9.25-7.527343-16.777344-16.777343-16.777344h-367.917969c-9.253907 0-16.78125 7.527344-16.78125 16.777344v44.644531h-17.746094v-43.984375c0-4.144531-3.355469-7.5-7.5-7.5-4.140625 0-7.5 3.355469-7.5 7.5v43.984375h-1.390625c-11.648438 0-21.125 9.476562-21.125 21.125v262.929688c0 11.648437 9.476562 21.125 21.125 21.125h469.75c11.648438 0 21.125-9.476563 21.125-21.125v-25.417969c0-4.144531-3.359375-7.5-7.5-7.5-4.144531 0-7.5 3.355469-7.5 7.5v25.417969c0 3.378906-2.75 6.125-6.125 6.125h-469.75c-3.378906 0-6.125-2.746094-6.125-6.125v-262.929688c0-3.378906 2.746094-6.125 6.125-6.125h469.75c3.375 0 6.125 2.746094 6.125 6.125v202.589844c0 4.140625 3.359375 7.5 7.5 7.5zm-62.761719-231.214844h-371.476562v-44.644531c0-.980469.796875-1.777344 1.777343-1.777344h367.917969c.980469 0 1.78125.796875 1.78125 1.777344zm0 0" fill="#000080" data-original="#000000"></path></g></symbol><symbol id="why_choose_us_3" xmlns="http://www.w3.org/2000/svg" xmlns:xlink="http://www.w3.org/1999/xlink" xmlns:svgjs="http://svgjs.com/svgjs" version="1.1" width="43" height="40" x="0" y="0" viewBox="0 0 430.08 430" style="enable-background: new 0 0 512 512" xml:space="preserve"><g><path xmlns="http://www.w3.org/2000/svg" d="m428.96875 179.441406-21.769531-33.308594c-9.613281-14.71875-25.945313-23.507812-43.699219-23.507812h-56.300781v-32.398438c0-19.78125-16.085938-35.867187-35.867188-35.867187h-105.394531c-5.914062-30.886719-33.101562-54.3203125-65.6875-54.3203125-36.898438 0-66.914062 30.0195315-66.914062 66.9140625 0 23.199219 11.878906 43.664063 29.863281 55.671875h-56.371094c-3.773437 0-6.828125 3.054688-6.828125 6.828125s3.054688 6.828125 6.828125 6.828125h68.265625v13.652344h-27.308594c-3.769531 0-6.824218 3.054687-6.824218 6.828125 0 3.773437 3.054687 6.824219 6.824218 6.824219h27.308594v13.652343h-68.265625c-3.773437 0-6.828125 3.054688-6.828125 6.828125 0 3.773438 3.054688 6.828125 6.828125 6.828125h68.265625v30.234375c-12.035156 5.308594-20.480469 17.316406-20.480469 31.292969v6.738281c0 3.773438 3.058594 6.828125 6.828125 6.828125h60.546875c3.882813 16.703125 18.859375 29.203125 36.730469 29.203125 17.875 0 32.847656-12.5 36.730469-29.203125h131.339843c3.886719 16.703125 18.863282 29.203125 36.730469 29.203125 17.867188 0 32.847657-12.5 36.730469-29.203125h23.003906c3.773438 0 6.824219-3.054687 6.824219-6.828125v-75.984375c0-1.328125-.386719-2.628906-1.109375-3.734375zm-381.980469-112.488281c0-29.367187 23.894531-53.261719 53.261719-53.261719 29.371094 0 53.261719 23.894532 53.261719 53.261719s-23.890625 53.261719-53.261719 53.261719c-29.367188 0-53.261719-23.894532-53.261719-53.261719zm41.757813 123.941406h13.652344c3.773437 0 6.828124-3.054687 6.828124-6.828125 0-3.773437-3.054687-6.828125-6.828124-6.828125h-13.652344v-13.652343h47.789062c3.769532 0 6.824219-3.050782 6.824219-6.824219 0-3.773438-3.054687-6.828125-6.824219-6.828125h-47.789062v-13.652344h88.746094c3.769531 0 6.828124-3.054688 6.828124-6.828125s-3.058593-6.828125-6.828124-6.828125h-40.191407c17.707031-11.824219 29.453125-31.855469 29.8125-54.613281h104.222657c12.246093 0 22.210937 9.96875 22.210937 22.214843v127.972657h-204.714844c-.027343 0-.054687.007812-.085937.007812zm204.800781 61.4375h-97.476563c-1.074218-7.851562-4.558593-14.929687-9.703124-20.480469h107.179687zm-204.714844-20.480469h42.238281c-5.140624 5.550782-8.628906 12.628907-9.699218 20.480469h-53.105469c.046875-11.296875 9.257813-20.480469 20.566406-20.480469zm69.886719 49.6875c-13.277344 0-24.085938-10.804687-24.085938-24.085937 0-13.277344 10.808594-24.085937 24.085938-24.085937 13.28125 0 24.085938 10.808593 24.085938 24.085937 0 13.28125-10.804688 24.085937-24.085938 24.085937zm204.800781 0c-13.277343 0-24.085937-10.804687-24.085937-24.085937 0-13.277344 10.808594-24.085937 24.085937-24.085937 13.28125 0 24.085938 10.808593 24.085938 24.085937 0 13.28125-10.804688 24.085937-24.085938 24.085937zm52.90625-29.207031h-15.554687c-2.511719-18.386719-18.285156-32.617187-37.351563-32.617187-19.066406 0-34.835937 14.230468-37.351562 32.617187h-18.96875v-116.050781h56.300781c13.121094 0 25.1875 6.472656 32.273438 17.316406l20.652343 31.609375zm0 0" fill="#000080" data-original="#000000"></path><path xmlns="http://www.w3.org/2000/svg" d="m374.6875 257.453125c0 6.167969-5 11.167969-11.167969 11.167969s-11.167969-5-11.167969-11.167969 5-11.167969 11.167969-11.167969 11.167969 5 11.167969 11.167969zm0 0" fill="#000080" data-original="#000000"></path><path xmlns="http://www.w3.org/2000/svg" d="m169.886719 257.453125c0 6.167969-5 11.167969-11.167969 11.167969-6.164062 0-11.164062-5-11.164062-11.167969s5-11.167969 11.164062-11.167969c6.167969 0 11.167969 5 11.167969 11.167969zm0 0" fill="#000080" data-original="#000000"></path><path xmlns="http://www.w3.org/2000/svg" d="m109.226562 66.953125v-29.867187c0-3.773438-3.054687-6.824219-6.828124-6.824219-3.769532 0-6.824219 3.050781-6.824219 6.824219v27.640624l-13.933594 19.113282c-2.222656 3.046875-1.554687 7.3125 1.492187 9.53125 1.21875.890625 2.625 1.316406 4.019532 1.316406 2.105468 0 4.183594-.972656 5.519531-2.808594l15.246094-20.90625c.847656-1.164062 1.308593-2.570312 1.308593-4.019531zm0 0" fill="#000080" data-original="#000000"></path><path xmlns="http://www.w3.org/2000/svg" d="m361.21875 143.105469h-13.058594c-3.773437 0-6.828125 3.054687-6.828125 6.828125v47.785156c0 3.773438 3.054688 6.828125 6.828125 6.828125h45.945313c4.28125 0 8.113281-2.214844 10.261719-5.914063 2.148437-3.699218 2.152343-8.128906.035156-11.820312l-15.941406-27.902344c-5.566407-9.742187-16.007813-15.804687-27.242188-15.804687zm-6.230469 47.789062v-34.132812h6.230469c6.347656 0 12.242188 3.417969 15.386719 8.925781l14.402343 25.207031zm0 0" fill="#000080" data-original="#000000"></path></g></symbol><symbol id="youtube" height="14" viewBox="-21 -117 682.66672 682" width="14" xmlns="http://www.w3.org/2000/svg"><path d="m626.8125 64.035156c-7.375-27.417968-28.992188-49.03125-56.40625-56.414062-50.082031-13.703125-250.414062-13.703125-250.414062-13.703125s-200.324219 0-250.40625 13.183593c-26.886719 7.375-49.03125 29.519532-56.40625 56.933594-13.179688 50.078125-13.179688 153.933594-13.179688 153.933594s0 104.378906 13.179688 153.933594c7.382812 27.414062 28.992187 49.027344 56.410156 56.410156 50.605468 13.707031 250.410156 13.707031 250.410156 13.707031s200.324219 0 250.40625-13.183593c27.417969-7.378907 49.03125-28.992188 56.414062-56.40625 13.175782-50.082032 13.175782-153.933594 13.175782-153.933594s.527344-104.382813-13.183594-154.460938zm-370.601562 249.878906v-191.890624l166.585937 95.945312zm0 0"></path></symbol><symbol id="quotes" enable-background="new 0 0 409.294 409.294" height="12px" viewBox="0 0 409.294 409.294" width="12px" xmlns="http://www.w3.org/2000/svg"><path d="m0 204.647v175.412h175.412v-175.412h-116.941c0-64.48 52.461-116.941 116.941-116.941v-58.471c-96.728 0-175.412 78.684-175.412 175.412z"></path><path d="m409.294 87.706v-58.471c-96.728 0-175.412 78.684-175.412 175.412v175.412h175.412v-175.412h-116.941c0-64.48 52.461-116.941 116.941-116.941z"></path></symbol><symbol id="remove_insurer" xmlns="http://www.w3.org/2000/svg" width="1em" height="1em" viewBox="0 0 24 24" fill="none" stroke="currentColor" stroke-width="2" stroke-linecap="round" stroke-linejoin="round" class="feather feather-x"><line x1="18" y1="6" x2="6" y2="18"></line><line x1="6" y1="6" x2="18" y2="18"></line></symbol></svg>