<svg width="38" height="22" viewBox="0 0 38 22" fill="none" xmlns="http://www.w3.org/2000/svg">
<path d="M0 2C0 0.895431 0.895431 0 2 0H36C37.1046 0 38 0.895431 38 2C38 3.10457 37.1046 4 36 4H2C0.89543 4 0 3.10457 0 2Z" fill="#1A096D"/>
<path d="M0 11C0 9.89543 0.895431 9 2 9H19C20.1046 9 21 9.89543 21 11C21 12.1046 20.1046 13 19 13H2C0.89543 13 0 12.1046 0 11Z" fill="#1A096D"/>
<path d="M0 20C0 18.8954 0.895431 18 2 18H31C32.1046 18 33 18.8954 33 20V20C33 21.1046 32.1046 22 31 22H2C0.895431 22 0 21.1046 0 20V20Z" fill="#1A096D"/>
</svg>
